<?xml version="1.0" encoding="utf-8"?>
<!-- Generator: Adobe Illustrator 15.1.0, SVG Export Plug-In . SVG Version: 6.00 Build 0)  -->
<!DOCTYPE svg PUBLIC "-//W3C//DTD SVG 1.1//EN" "http://www.w3.org/Graphics/SVG/1.1/DTD/svg11.dtd">
<svg version="1.1" id="Layer_1" xmlns="http://www.w3.org/2000/svg" xmlns:xlink="http://www.w3.org/1999/xlink" x="0px" y="0px"
	 width="24px" height="24px" viewBox="0 0 24 24" enable-background="new 0 0 24 24" xml:space="preserve">
<g>
	<path fill="#FFFFFF" stroke="#231F20" stroke-width="0.25" d="M23.443,14.427c-1.814-0.249-8.514-0.589-11.502-1.078
		c-2.404-0.393-4.752-1.108-6.992-1.86c-0.579-0.194-1.605-0.593-2.262-0.946C2.271,10.225,1.272,9.754,1,9.308
		c4.343,2.062,6.092,2.63,11.187,3.661C14.252,13.393,21.772,14.001,23.443,14.427z"/>
	<polygon fill="#FFFFFF" stroke="#231F20" stroke-width="0.25" points="17.017,15.226 17.017,15.226 16.821,15.293 16.632,15.308 
		16.441,15.277 16.253,15.201 16.067,15.098 15.884,14.965 15.708,14.812 15.535,14.648 15.371,14.479 15.217,14.31 15.068,14.146 
		14.93,13.993 14.802,13.864 14.684,13.762 14.581,13.695 14.487,13.665 14.487,13.665 14.565,13.669 14.647,13.674 14.738,13.686 
		14.832,13.695 14.924,13.706 15.016,13.715 15.108,13.721 15.19,13.73 15.19,13.73 15.318,13.85 15.441,13.961 15.55,14.073 
		15.646,14.186 15.744,14.295 15.837,14.402 15.924,14.504 16.017,14.602 16.108,14.699 16.206,14.786 16.309,14.873 16.428,14.954 
		16.551,15.032 16.688,15.104 16.843,15.17 	"/>
	<polygon fill="#FFFFFF" stroke="#231F20" stroke-width="0.25" points="17.652,15.199 17.652,15.199 17.426,15.235 17.218,15.241 
		17.021,15.222 16.837,15.175 16.667,15.104 16.514,15.015 16.359,14.913 16.222,14.796 16.083,14.672 15.955,14.541 15.827,14.396 
		15.703,14.258 15.576,14.119 15.446,13.981 15.318,13.853 15.185,13.736 15.185,13.736 15.236,13.74 15.292,13.74 15.345,13.746 
		15.401,13.751 15.457,13.756 15.514,13.767 15.569,13.771 15.626,13.776 15.682,13.78 15.743,13.786 15.802,13.797 15.862,13.802 
		15.924,13.808 15.985,13.812 16.047,13.812 16.108,13.817 16.108,13.817 16.153,13.889 16.211,13.976 16.282,14.078 16.359,14.186 
		16.451,14.304 16.551,14.421 16.652,14.544 16.76,14.662 16.872,14.776 16.984,14.884 17.104,14.98 17.218,15.062 17.328,15.128 
		17.442,15.174 17.55,15.199 	"/>
	<polygon fill="#FFFFFF" stroke="#231F20" stroke-width="0.25" points="18.072,15.206 18.072,15.206 17.944,15.222 17.821,15.23 
		17.702,15.226 17.586,15.206 17.467,15.179 17.355,15.134 17.242,15.076 17.123,15 17.006,14.913 16.887,14.811 16.771,14.688 
		16.647,14.556 16.518,14.396 16.386,14.222 16.247,14.032 16.104,13.817 16.104,13.817 16.19,13.816 16.272,13.821 16.354,13.833 
		16.437,13.842 16.518,13.853 16.6,13.862 16.692,13.862 16.789,13.862 16.789,13.862 16.872,13.945 16.949,14.032 17.025,14.113 
		17.104,14.206 17.18,14.293 17.251,14.386 17.328,14.473 17.401,14.564 17.479,14.652 17.554,14.739 17.635,14.825 17.713,14.907 
		17.8,14.984 17.888,15.062 17.975,15.138 	"/>
	<polygon fill="#FFFFFF" stroke="#231F20" stroke-width="0.25" points="18.518,15.184 18.518,15.184 18.42,15.234 18.313,15.256 
		18.206,15.241 18.092,15.193 17.979,15.127 17.861,15.036 17.743,14.933 17.626,14.811 17.513,14.682 17.396,14.55 17.287,14.416 
		17.18,14.287 17.077,14.159 16.979,14.047 16.887,13.95 16.805,13.868 17.354,13.919 17.354,13.919 17.415,14 17.48,14.082 
		17.543,14.164 17.604,14.246 17.665,14.328 17.732,14.409 17.794,14.492 17.861,14.574 17.934,14.651 18.005,14.732 18.076,14.811 
		18.158,14.888 18.241,14.963 18.329,15.041 18.42,15.111 	"/>
	<polygon fill="#FFFFFF" stroke="#231F20" stroke-width="0.25" points="19.426,15.066 19.426,15.066 19.266,15.168 19.118,15.234 
		18.969,15.265 18.824,15.265 18.686,15.239 18.555,15.193 18.425,15.122 18.297,15.03 18.174,14.918 18.051,14.8 17.938,14.662 
		17.82,14.523 17.707,14.375 17.594,14.221 17.486,14.068 17.379,13.919 17.379,13.919 17.472,13.934 17.543,13.938 17.594,13.945 
		17.641,13.949 17.687,13.955 17.732,13.955 17.8,13.96 17.888,13.964 17.888,13.964 17.984,14.103 18.08,14.23 18.18,14.354 
		18.287,14.461 18.39,14.559 18.492,14.65 18.599,14.732 18.702,14.806 18.805,14.866 18.907,14.923 19.004,14.963 19.098,14.999 
		19.188,15.029 19.271,15.05 19.353,15.061 	"/>
	<polygon fill="#FFFFFF" stroke="#231F20" stroke-width="0.25" points="19.901,15.034 19.901,15.034 19.738,15.055 19.578,15.066 
		19.426,15.055 19.277,15.034 19.139,15.004 19,14.958 18.872,14.902 18.747,14.83 18.625,14.752 18.513,14.666 18.399,14.568 
		18.292,14.461 18.188,14.348 18.092,14.225 17.994,14.098 17.902,13.964 17.902,13.964 18.005,13.97 18.117,13.979 18.225,13.989 
		18.332,13.995 18.425,14.004 18.502,14.01 18.558,14.016 18.584,14.02 18.584,14.02 18.594,14.03 18.619,14.057 18.66,14.098 
		18.713,14.148 18.769,14.21 18.84,14.281 18.918,14.358 19.004,14.441 19.102,14.521 19.204,14.609 19.307,14.691 19.42,14.773 
		19.537,14.85 19.655,14.922 19.778,14.983 	"/>
	<polygon fill="#FFFFFF" stroke="#231F20" stroke-width="0.25" points="20.531,15.069 20.531,15.069 20.395,15.096 20.261,15.105 
		20.122,15.09 19.983,15.065 19.846,15.02 19.712,14.962 19.578,14.896 19.445,14.813 19.323,14.727 19.199,14.636 19.081,14.538 
		18.968,14.436 18.86,14.328 18.758,14.225 18.666,14.123 18.578,14.02 18.578,14.02 18.64,14.02 18.717,14.026 18.799,14.03 
		18.886,14.03 18.967,14.039 19.05,14.044 19.116,14.051 19.173,14.061 19.173,14.061 19.173,14.071 19.193,14.098 19.245,14.143 
		19.316,14.199 19.405,14.271 19.506,14.353 19.619,14.44 19.737,14.527 19.86,14.619 19.983,14.711 20.102,14.799 20.215,14.875 
		20.317,14.946 20.408,15.003 20.481,15.043 	"/>
	<polygon fill="#FFFFFF" stroke="#231F20" stroke-width="0.25" points="21.229,15.064 21.229,15.064 21.147,15.146 21.04,15.182 
		20.906,15.182 20.758,15.146 20.594,15.084 20.424,14.999 20.245,14.895 20.071,14.782 19.896,14.66 19.732,14.537 19.578,14.419 
		19.444,14.306 19.327,14.215 19.24,14.139 19.185,14.087 19.157,14.065 19.157,14.065 19.225,14.071 19.296,14.076 19.373,14.08 
		19.449,14.085 19.531,14.097 19.613,14.101 19.696,14.106 19.783,14.112 19.783,14.112 19.875,14.168 19.968,14.223 20.06,14.285 
		20.146,14.342 20.239,14.403 20.327,14.47 20.418,14.53 20.506,14.593 20.599,14.66 20.686,14.722 20.778,14.782 20.865,14.845 
		20.957,14.9 21.05,14.956 21.138,15.013 	"/>
	<polygon fill="#FFFFFF" stroke="#231F20" stroke-width="0.25" points="21.742,15.073 21.742,15.073 21.654,15.105 21.567,15.12 
		21.48,15.125 21.393,15.11 21.306,15.084 21.214,15.049 21.116,14.997 21.013,14.935 20.901,14.864 20.783,14.782 20.655,14.69 
		20.513,14.593 20.353,14.485 20.184,14.367 19.999,14.244 19.793,14.116 19.793,14.116 19.88,14.121 19.978,14.126 20.064,14.126 
		20.152,14.133 20.229,14.137 20.291,14.142 20.332,14.147 20.347,14.152 20.347,14.152 20.357,14.168 20.388,14.197 20.435,14.238 
		20.496,14.295 20.573,14.362 20.66,14.44 20.751,14.517 20.86,14.598 20.968,14.681 21.08,14.763 21.192,14.832 21.311,14.905 
		21.425,14.966 21.536,15.017 21.644,15.053 	"/>
	<polygon fill="#FFFFFF" stroke="#231F20" stroke-width="0.25" points="22.115,15.017 22.115,15.017 21.998,15.063 21.87,15.083 
		21.736,15.073 21.598,15.037 21.454,14.986 21.316,14.921 21.173,14.839 21.039,14.746 20.911,14.654 20.787,14.557 20.676,14.464 
		20.578,14.373 20.489,14.295 20.424,14.229 20.373,14.183 20.342,14.152 20.342,14.152 20.424,14.156 20.5,14.162 20.577,14.168 
		20.655,14.178 20.726,14.183 20.805,14.188 20.886,14.197 20.967,14.203 20.967,14.203 21.028,14.259 21.096,14.315 21.156,14.372 
		21.224,14.434 21.29,14.5 21.357,14.561 21.429,14.623 21.5,14.684 21.572,14.74 21.644,14.798 21.72,14.848 21.793,14.894 
		21.875,14.935 21.952,14.971 22.034,14.997 	"/>
	<polygon fill="#FFFFFF" stroke="#231F20" stroke-width="0.25" points="22.565,14.874 22.565,14.874 22.464,14.944 22.362,14.991 
		22.261,15.012 22.156,15.017 22.054,14.997 21.952,14.965 21.85,14.921 21.746,14.859 21.65,14.791 21.548,14.709 21.449,14.628 
		21.352,14.541 21.255,14.454 21.162,14.362 21.069,14.274 20.977,14.192 20.977,14.192 21.033,14.197 21.095,14.209 21.162,14.213 
		21.233,14.219 21.311,14.227 21.393,14.233 21.48,14.243 21.562,14.249 21.562,14.249 21.588,14.31 21.623,14.371 21.659,14.428 
		21.706,14.484 21.757,14.535 21.814,14.587 21.87,14.638 21.937,14.679 22.003,14.72 22.075,14.756 22.15,14.791 22.229,14.817 
		22.311,14.838 22.393,14.858 22.48,14.868 	"/>
	<polygon fill="#FFFFFF" stroke="#231F20" stroke-width="0.25" points="22.972,14.796 22.972,14.796 22.885,14.832 22.791,14.857 
		22.694,14.873 22.587,14.874 22.484,14.868 22.372,14.852 22.264,14.821 22.156,14.791 22.054,14.745 21.957,14.695 21.87,14.638 
		21.788,14.571 21.716,14.5 21.653,14.423 21.608,14.335 21.577,14.249 21.577,14.249 21.638,14.254 21.7,14.259 21.767,14.268 
		21.834,14.274 21.899,14.279 21.972,14.283 22.048,14.29 22.136,14.295 22.136,14.295 22.171,14.345 22.212,14.397 22.253,14.443 
		22.295,14.484 22.336,14.524 22.382,14.556 22.428,14.592 22.475,14.623 22.524,14.647 22.582,14.672 22.639,14.699 22.701,14.72 
		22.762,14.74 22.828,14.761 22.898,14.776 	"/>
	<polygon fill="#FFFFFF" stroke="#231F20" stroke-width="0.25" points="23.182,14.725 23.182,14.725 23.151,14.754 23.105,14.776 
		23.049,14.786 22.987,14.786 22.915,14.78 22.838,14.766 22.756,14.74 22.674,14.713 22.593,14.679 22.51,14.638 22.428,14.592 
		22.357,14.541 22.285,14.483 22.224,14.422 22.177,14.361 22.136,14.295 22.136,14.295 22.183,14.3 22.224,14.305 22.274,14.31 
		22.32,14.315 22.367,14.32 22.408,14.324 22.443,14.324 22.479,14.324 22.479,14.324 22.479,14.345 22.524,14.386 22.603,14.443 
		22.705,14.509 22.828,14.576 22.952,14.643 23.075,14.693 	"/>
	<polygon fill="#FFFFFF" stroke="#231F20" stroke-width="0.25" points="23.33,14.58 23.33,14.58 23.32,14.652 23.295,14.699 
		23.254,14.72 23.197,14.729 23.131,14.72 23.054,14.693 22.977,14.664 22.895,14.623 22.812,14.576 22.735,14.524 22.66,14.474 
		22.598,14.427 22.541,14.386 22.499,14.356 22.475,14.335 22.469,14.324 22.869,14.371 22.869,14.371 22.898,14.391 22.952,14.417 
		23.012,14.446 23.078,14.479 23.151,14.515 23.218,14.54 23.279,14.564 	"/>
	<polygon fill="#FFFFFF" stroke="#231F20" stroke-width="0.25" points="22.869,14.371 22.869,14.371 22.955,14.376 23.033,14.38 
		23.105,14.386 23.172,14.391 23.232,14.396 23.299,14.401 23.366,14.412 23.443,14.427 23.443,14.427 23.427,14.523 23.382,14.569 
		23.31,14.569 23.218,14.544 23.125,14.499 23.028,14.446 22.939,14.401 	"/>
	<polygon fill="#FFFFFF" stroke="#231F20" stroke-width="0.25" points="22.885,14.32 22.885,14.32 22.971,14.334 23.049,14.345 
		23.115,14.36 23.182,14.37 23.243,14.386 23.304,14.401 23.376,14.417 23.452,14.438 23.452,14.438 23.458,14.324 23.412,14.252 
		23.34,14.226 23.243,14.222 23.141,14.242 23.038,14.268 22.951,14.298 	"/>
	<polygon fill="#FFFFFF" stroke="#231F20" stroke-width="0.25" points="17.552,12.238 17.552,12.238 17.327,12.15 17.11,12.094 
		16.912,12.08 16.721,12.089 16.537,12.131 16.368,12.192 16.204,12.28 16.045,12.377 15.891,12.489 15.743,12.613 15.595,12.741 
		15.451,12.875 15.307,13.003 15.164,13.126 15.021,13.244 14.872,13.352 14.872,13.352 14.924,13.362 14.979,13.367 15.036,13.372 
		15.088,13.382 15.144,13.388 15.2,13.393 15.262,13.396 15.318,13.403 15.374,13.407 15.437,13.412 15.498,13.423 15.554,13.429 
		15.616,13.434 15.678,13.443 15.743,13.447 15.805,13.459 15.805,13.459 15.857,13.388 15.923,13.3 16,13.197 16.092,13.096 
		16.188,12.981 16.296,12.869 16.414,12.756 16.533,12.648 16.661,12.545 16.788,12.453 16.917,12.372 17.051,12.305 17.178,12.253 
		17.306,12.223 17.436,12.217 	"/>
	<polygon fill="#FFFFFF" stroke="#231F20" stroke-width="0.25" points="17.937,12.324 17.937,12.324 17.81,12.278 17.686,12.247 
		17.567,12.227 17.443,12.217 17.327,12.227 17.203,12.253 17.086,12.289 16.963,12.345 16.835,12.417 16.706,12.509 16.574,12.617 
		16.436,12.746 16.288,12.895 16.139,13.063 15.98,13.254 15.811,13.464 15.811,13.464 15.902,13.47 15.984,13.479 16.062,13.484 
		16.133,13.493 16.206,13.505 16.282,13.515 16.369,13.529 16.472,13.546 16.472,13.546 16.564,13.469 16.65,13.387 16.743,13.299 
		16.825,13.212 16.912,13.125 16.998,13.037 17.08,12.951 17.168,12.862 17.257,12.781 17.347,12.704 17.436,12.627 17.526,12.55 
		17.625,12.484 17.728,12.427 17.829,12.371 	"/>
	<polygon fill="#FFFFFF" stroke="#231F20" stroke-width="0.25" points="18.368,12.437 18.368,12.437 18.27,12.355 18.161,12.314 
		18.044,12.304 17.926,12.329 17.799,12.381 17.67,12.453 17.537,12.545 17.404,12.653 17.271,12.771 17.138,12.894 17.01,13.017 
		16.887,13.146 16.774,13.263 16.662,13.37 16.564,13.464 16.472,13.541 17.031,13.606 17.031,13.606 17.103,13.524 17.175,13.442 
		17.241,13.36 17.312,13.278 17.384,13.195 17.455,13.108 17.531,13.026 17.604,12.95 17.687,12.873 17.769,12.796 17.854,12.724 
		17.947,12.657 18.044,12.591 18.147,12.535 18.255,12.483 	"/>
	<polygon fill="#FFFFFF" stroke="#231F20" stroke-width="0.25" points="19.208,12.794 19.208,12.794 19.055,12.646 18.906,12.539 
		18.762,12.467 18.618,12.426 18.476,12.421 18.336,12.442 18.198,12.494 18.064,12.56 17.932,12.652 17.804,12.76 17.671,12.883 
		17.548,13.017 17.42,13.154 17.297,13.304 17.175,13.452 17.051,13.602 17.051,13.602 17.147,13.606 17.229,13.611 17.297,13.616 
		17.358,13.628 17.42,13.637 17.486,13.646 17.562,13.657 17.657,13.672 17.657,13.672 17.764,13.534 17.866,13.41 17.973,13.298 
		18.075,13.201 18.185,13.119 18.286,13.047 18.382,12.985 18.484,12.934 18.583,12.893 18.675,12.862 18.772,12.836 18.865,12.816 
		18.951,12.805 19.039,12.795 19.126,12.795 	"/>
	<polygon fill="#FFFFFF" stroke="#231F20" stroke-width="0.25" points="19.809,12.933 19.809,12.933 19.638,12.871 19.48,12.825 
		19.321,12.8 19.172,12.79 19.023,12.79 18.88,12.811 18.741,12.841 18.607,12.888 18.477,12.944 18.353,13.016 18.225,13.098 
		18.107,13.189 17.988,13.293 17.876,13.405 17.769,13.529 17.661,13.663 17.661,13.663 17.769,13.678 17.891,13.693 18.015,13.708 
		18.138,13.724 18.251,13.738 18.338,13.749 18.404,13.754 18.43,13.753 18.43,13.753 18.44,13.743 18.465,13.724 18.502,13.688 
		18.547,13.642 18.604,13.586 18.671,13.528 18.747,13.462 18.835,13.39 18.933,13.323 19.035,13.252 19.146,13.184 19.269,13.117 
		19.393,13.062 19.526,13.01 19.665,12.963 	"/>
	<polygon fill="#FFFFFF" stroke="#231F20" stroke-width="0.25" points="20.566,13.024 20.566,13.024 20.428,12.969 20.291,12.928 
		20.141,12.912 19.998,12.912 19.85,12.928 19.7,12.959 19.557,13.005 19.408,13.062 19.269,13.128 19.131,13.199 18.999,13.287 
		18.865,13.374 18.747,13.468 18.63,13.564 18.521,13.662 18.425,13.759 18.425,13.759 18.491,13.765 18.573,13.775 18.666,13.784 
		18.763,13.795 18.86,13.806 18.947,13.814 19.024,13.819 19.081,13.819 19.081,13.819 19.081,13.811 19.106,13.784 19.157,13.749 
		19.233,13.697 19.327,13.642 19.434,13.573 19.557,13.502 19.685,13.431 19.813,13.358 19.946,13.286 20.079,13.22 20.202,13.158 
		20.316,13.106 20.417,13.065 20.5,13.039 	"/>
	<polygon fill="#FFFFFF" stroke="#231F20" stroke-width="0.25" points="21.285,13.173 21.285,13.173 21.212,13.06 21.104,12.993 
		20.971,12.969 20.817,12.969 20.648,13.004 20.463,13.061 20.27,13.139 20.079,13.225 19.886,13.323 19.705,13.425 19.536,13.522 
		19.383,13.62 19.254,13.702 19.157,13.765 19.09,13.81 19.061,13.825 19.061,13.825 19.131,13.84 19.213,13.851 19.301,13.86 
		19.394,13.866 19.49,13.877 19.588,13.887 19.681,13.901 19.772,13.917 19.772,13.917 19.87,13.871 19.962,13.824 20.06,13.773 
		20.152,13.723 20.244,13.676 20.336,13.625 20.434,13.572 20.525,13.521 20.618,13.476 20.709,13.424 20.808,13.378 20.9,13.336 
		20.992,13.291 21.089,13.25 21.187,13.209 	"/>
	<polygon fill="#FFFFFF" stroke="#231F20" stroke-width="0.25" points="22.201,13.417 22.201,13.417 22.089,13.335 21.961,13.29 
		21.827,13.27 21.684,13.27 21.535,13.294 21.381,13.342 21.232,13.397 21.084,13.465 20.945,13.543 20.808,13.618 20.685,13.7 
		20.577,13.773 20.48,13.84 20.403,13.901 20.347,13.942 20.316,13.968 20.316,13.968 20.398,13.978 20.475,13.988 20.542,13.998 
		20.608,14.003 20.681,14.008 20.746,14.019 20.823,14.029 20.904,14.038 20.904,14.038 20.977,13.993 21.049,13.946 21.126,13.891 
		21.203,13.838 21.285,13.781 21.367,13.727 21.448,13.669 21.53,13.618 21.612,13.566 21.7,13.525 21.786,13.484 21.87,13.454 
		21.955,13.429 22.039,13.412 22.119,13.412 	"/>
	<polygon fill="#FFFFFF" stroke="#231F20" stroke-width="0.25" points="21.863,13.27 21.863,13.27 21.776,13.213 21.684,13.173 
		21.596,13.151 21.505,13.142 21.412,13.146 21.314,13.168 21.207,13.203 21.095,13.244 20.971,13.301 20.844,13.363 20.7,13.44 
		20.547,13.521 20.377,13.609 20.193,13.701 19.994,13.805 19.772,13.907 19.772,13.907 19.854,13.912 19.947,13.922 20.038,13.933 
		20.132,13.947 20.214,13.958 20.275,13.969 20.321,13.973 20.342,13.969 20.342,13.969 20.352,13.958 20.388,13.932 20.434,13.891 
		20.495,13.846 20.571,13.788 20.665,13.727 20.763,13.659 20.869,13.592 20.986,13.526 21.105,13.461 21.232,13.404 21.36,13.352 
		21.489,13.311 21.618,13.285 21.741,13.27 	"/>
	<polygon fill="#FFFFFF" stroke="#231F20" stroke-width="0.25" points="22.612,13.679 22.612,13.679 22.521,13.576 22.423,13.5 
		22.325,13.448 22.223,13.417 22.119,13.412 22.012,13.423 21.899,13.448 21.791,13.484 21.679,13.543 21.571,13.598 21.458,13.669 
		21.346,13.74 21.233,13.812 21.126,13.891 21.019,13.968 20.91,14.034 20.91,14.034 20.971,14.043 21.039,14.049 21.114,14.064 
		21.196,14.074 21.285,14.084 21.377,14.096 21.465,14.104 21.552,14.115 21.552,14.115 21.582,14.049 21.618,13.993 21.659,13.936 
		21.71,13.886 21.761,13.838 21.817,13.804 21.885,13.767 21.952,13.736 22.022,13.71 22.1,13.689 22.177,13.674 22.26,13.664 
		22.345,13.658 22.432,13.658 22.521,13.669 	"/>
	<polygon fill="#FFFFFF" stroke="#231F20" stroke-width="0.25" points="23.242,14.017 23.242,14.017 23.217,13.976 23.176,13.939 
		23.118,13.909 23.058,13.889 22.986,13.874 22.905,13.868 22.822,13.868 22.73,13.874 22.643,13.889 22.551,13.91 22.464,13.94 
		22.382,13.976 22.304,14.017 22.231,14.07 22.177,14.125 22.125,14.186 22.125,14.186 22.171,14.197 22.228,14.207 22.285,14.218 
		22.341,14.227 22.392,14.232 22.433,14.237 22.464,14.237 22.474,14.237 22.474,14.237 22.494,14.227 22.546,14.195 22.633,14.154 
		22.735,14.11 22.854,14.069 22.986,14.032 23.115,14.012 	"/>
	<polygon fill="#FFFFFF" stroke="#231F20" stroke-width="0.25" points="23.366,14.226 23.366,14.226 23.371,14.146 23.351,14.083 
		23.313,14.042 23.258,14.017 23.191,14.006 23.115,14.012 23.032,14.021 22.939,14.043 22.854,14.072 22.767,14.104 22.684,14.135 
		22.612,14.166 22.551,14.196 22.499,14.218 22.474,14.237 22.464,14.242 22.873,14.314 22.873,14.314 22.911,14.298 22.967,14.283 
		23.028,14.263 23.1,14.242 23.172,14.226 23.242,14.217 23.31,14.217 	"/>
	<polygon fill="#FFFFFF" stroke="#231F20" stroke-width="0.25" points="23.028,13.883 23.028,13.883 22.946,13.816 22.857,13.767 
		22.761,13.72 22.653,13.689 22.546,13.669 22.438,13.654 22.325,13.654 22.212,13.664 22.104,13.685 21.997,13.721 21.899,13.762 
		21.809,13.812 21.72,13.875 21.649,13.946 21.593,14.029 21.547,14.12 21.547,14.12 21.612,14.125 21.674,14.137 21.741,14.141 
		21.814,14.151 21.885,14.161 21.961,14.166 22.042,14.182 22.13,14.192 22.13,14.192 22.162,14.146 22.197,14.104 22.238,14.07 
		22.285,14.033 22.336,14.001 22.391,13.971 22.448,13.946 22.51,13.926 22.571,13.905 22.637,13.889 22.7,13.879 22.766,13.874 
		22.832,13.868 22.898,13.868 22.967,13.874 	"/>
	<polygon fill="#FFFFFF" stroke="#231F20" stroke-width="0.25" points="4.779,11.432 4.779,11.432 4.769,11.448 4.744,11.489 
		4.708,11.555 4.662,11.637 4.61,11.735 4.559,11.842 4.513,11.966 4.473,12.088 4.441,12.217 4.431,12.34 4.437,12.463 
		4.462,12.576 4.519,12.678 4.605,12.77 4.729,12.841 4.888,12.893 4.888,12.893 4.862,12.816 4.847,12.733 4.831,12.652 
		4.821,12.56 4.816,12.467 4.816,12.371 4.821,12.278 4.827,12.181 4.836,12.083 4.847,11.987 4.862,11.894 4.882,11.807 
		4.897,11.719 4.918,11.643 4.943,11.565 4.964,11.499 4.964,11.499 4.938,11.488 4.917,11.484 4.892,11.473 4.871,11.468 
		4.851,11.458 4.83,11.453 4.805,11.442 	"/>
	<polygon fill="#FFFFFF" stroke="#231F20" stroke-width="0.25" points="4.953,11.504 4.953,11.504 4.882,11.786 4.831,12.042 
		4.806,12.263 4.8,12.458 4.811,12.626 4.841,12.77 4.883,12.893 4.929,12.995 4.991,13.077 5.057,13.144 5.124,13.189 5.19,13.225 
		5.263,13.252 5.324,13.262 5.38,13.267 5.432,13.267 5.432,13.267 5.401,13.184 5.37,13.103 5.345,13.011 5.324,12.918 
		5.304,12.816 5.288,12.713 5.272,12.611 5.262,12.503 5.256,12.396 5.256,12.283 5.262,12.175 5.271,12.062 5.287,11.954 
		5.308,11.842 5.333,11.74 5.364,11.632 5.364,11.632 5.303,11.611 5.24,11.591 5.184,11.571 5.128,11.555 5.082,11.54 
		5.031,11.524 4.99,11.514 	"/>
	<polygon fill="#FFFFFF" stroke="#231F20" stroke-width="0.25" points="5.368,11.632 5.368,11.632 5.338,11.734 5.308,11.862 
		5.287,12.006 5.277,12.165 5.272,12.339 5.272,12.514 5.288,12.688 5.313,12.857 5.35,13.016 5.396,13.164 5.463,13.293 
		5.539,13.395 5.637,13.472 5.75,13.513 5.878,13.517 6.026,13.477 6.026,13.477 5.97,13.384 5.914,13.287 5.867,13.184 
		5.826,13.088 5.795,12.98 5.764,12.877 5.744,12.769 5.723,12.661 5.713,12.554 5.708,12.441 5.708,12.334 5.718,12.221 
		5.728,12.108 5.749,12.001 5.769,11.888 5.799,11.78 5.799,11.78 5.749,11.76 5.687,11.739 5.625,11.719 5.563,11.698 
		5.502,11.678 5.451,11.657 5.404,11.642 	"/>
	<polygon fill="#FFFFFF" stroke="#231F20" stroke-width="0.25" points="6.672,13.758 6.672,13.758 6.534,13.769 6.4,13.747 
		6.283,13.697 6.175,13.626 6.072,13.527 5.985,13.409 5.914,13.277 5.847,13.129 5.795,12.969 5.754,12.8 5.728,12.626 
		5.718,12.452 5.718,12.277 5.733,12.103 5.763,11.934 5.81,11.775 5.81,11.775 5.866,11.795 5.922,11.816 5.984,11.831 
		6.046,11.852 6.107,11.872 6.174,11.893 6.235,11.913 6.302,11.934 6.302,11.934 6.302,12.042 6.302,12.159 6.308,12.292 
		6.312,12.431 6.317,12.569 6.323,12.712 6.338,12.861 6.354,13 6.375,13.139 6.395,13.267 6.426,13.39 6.461,13.497 6.503,13.589 
		6.554,13.666 6.61,13.723 	"/>
	<polygon fill="#FFFFFF" stroke="#231F20" stroke-width="0.25" points="6.307,11.938 6.307,11.938 6.358,11.959 6.409,11.974 
		6.456,11.989 6.507,12 6.558,12.015 6.605,12.031 6.656,12.045 6.707,12.066 6.707,12.066 6.718,12.169 6.722,12.282 6.728,12.405 
		6.733,12.533 6.733,12.661 6.733,12.799 6.739,12.938 6.744,13.071 6.754,13.205 6.77,13.336 6.794,13.461 6.821,13.573 
		6.862,13.681 6.907,13.777 6.964,13.86 7.036,13.927 7.036,13.927 6.887,13.891 6.765,13.84 6.662,13.769 6.575,13.686 
		6.503,13.589 6.446,13.477 6.405,13.353 6.375,13.225 6.354,13.082 6.338,12.933 6.333,12.779 6.328,12.615 6.323,12.451 
		6.317,12.282 6.317,12.113 	"/>
	<polygon fill="#FFFFFF" stroke="#231F20" stroke-width="0.25" points="7.667,14.126 7.667,14.126 7.461,14.115 7.287,14.074 
		7.145,14.009 7.026,13.922 6.934,13.809 6.867,13.681 6.811,13.537 6.774,13.378 6.754,13.215 6.739,13.046 6.733,12.871 
		6.733,12.702 6.733,12.527 6.732,12.364 6.722,12.21 6.712,12.066 6.712,12.066 6.769,12.082 6.82,12.097 6.865,12.113 
		6.917,12.128 6.968,12.143 7.015,12.158 7.065,12.169 7.123,12.184 7.123,12.184 7.117,12.199 7.107,12.235 7.096,12.292 
		7.081,12.363 7.071,12.456 7.061,12.558 7.055,12.676 7.061,12.81 7.076,12.948 7.103,13.101 7.148,13.261 7.205,13.425 
		7.287,13.593 7.39,13.773 7.513,13.946 	"/>
	<polygon fill="#FFFFFF" stroke="#231F20" stroke-width="0.25" points="8.364,14.346 8.364,14.346 8.226,14.371 8.087,14.362 
		7.954,14.315 7.821,14.243 7.693,14.146 7.57,14.029 7.457,13.886 7.354,13.727 7.267,13.557 7.189,13.372 7.127,13.179 
		7.086,12.979 7.061,12.779 7.055,12.574 7.076,12.378 7.117,12.184 7.604,12.337 7.604,12.337 7.599,12.419 7.593,12.517 
		7.599,12.625 7.609,12.747 7.625,12.875 7.65,13.015 7.676,13.157 7.717,13.306 7.764,13.454 7.82,13.598 7.882,13.74 7.958,13.88 
		8.041,14.014 8.139,14.137 8.246,14.249 	"/>
	<polygon fill="#FFFFFF" stroke="#231F20" stroke-width="0.25" points="7.593,12.327 7.593,12.327 7.67,12.353 7.768,12.377 
		7.875,12.414 7.988,12.445 8.096,12.48 8.203,12.511 8.296,12.537 8.368,12.552 8.368,12.552 8.378,12.67 8.384,12.798 
		8.394,12.926 8.399,13.06 8.415,13.191 8.424,13.331 8.441,13.464 8.461,13.598 8.486,13.726 8.517,13.85 8.559,13.972 
		8.604,14.084 8.662,14.192 8.728,14.283 8.799,14.371 8.887,14.447 8.887,14.447 8.784,14.464 8.677,14.459 8.569,14.433 
		8.461,14.388 8.354,14.32 8.246,14.238 8.143,14.137 8.041,14.008 7.948,13.87 7.867,13.706 7.79,13.525 7.723,13.322 
		7.671,13.101 7.63,12.865 7.604,12.604 	"/>
	<polygon fill="#FFFFFF" stroke="#231F20" stroke-width="0.25" points="9.559,14.55 9.559,14.55 9.328,14.561 9.133,14.541 
		8.964,14.484 8.831,14.397 8.718,14.29 8.625,14.161 8.559,14.017 8.507,13.853 8.465,13.689 8.441,13.511 8.424,13.336 
		8.409,13.162 8.404,12.987 8.394,12.829 8.384,12.68 8.368,12.547 8.368,12.547 8.44,12.562 8.501,12.578 8.557,12.599 
		8.613,12.613 8.675,12.629 8.732,12.644 8.798,12.665 8.875,12.685 8.875,12.685 8.891,12.823 8.906,12.956 8.921,13.09 
		8.942,13.219 8.958,13.347 8.979,13.47 9.004,13.587 9.03,13.704 9.066,13.817 9.107,13.93 9.158,14.037 9.214,14.146 
		9.286,14.253 9.364,14.355 9.456,14.453 	"/>
	<polygon fill="#FFFFFF" stroke="#231F20" stroke-width="0.25" points="10.179,14.662 10.179,14.662 9.974,14.672 9.794,14.646 
		9.635,14.591 9.497,14.504 9.378,14.396 9.276,14.268 9.194,14.119 9.122,13.961 9.061,13.797 9.015,13.623 8.979,13.453 
		8.953,13.28 8.927,13.115 8.911,12.961 8.896,12.818 8.886,12.695 8.886,12.695 8.958,12.71 9.019,12.726 9.075,12.741 
		9.131,12.751 9.183,12.767 9.24,12.777 9.306,12.797 9.383,12.812 9.383,12.812 9.408,13.014 9.44,13.202 9.476,13.376 
		9.511,13.541 9.553,13.689 9.599,13.833 9.65,13.956 9.702,14.072 9.752,14.182 9.81,14.278 9.871,14.36 9.927,14.438 
		9.989,14.509 10.051,14.564 10.117,14.616 	"/>
	<polygon fill="#FFFFFF" stroke="#231F20" stroke-width="0.25" points="10.763,14.739 10.763,14.739 10.568,14.749 10.394,14.724 
		10.24,14.666 10.096,14.585 9.979,14.479 9.871,14.355 9.778,14.211 9.697,14.058 9.625,13.899 9.568,13.73 9.522,13.561 
		9.481,13.392 9.444,13.232 9.419,13.078 9.398,12.941 9.377,12.818 9.377,12.818 9.439,12.828 9.5,12.843 9.562,12.858 
		9.624,12.874 9.686,12.89 9.747,12.904 9.809,12.92 9.875,12.935 9.875,12.935 9.88,13.033 9.896,13.14 9.917,13.254 9.952,13.376 
		9.988,13.509 10.039,13.637 10.091,13.775 10.147,13.909 10.214,14.042 10.286,14.17 10.357,14.288 10.435,14.401 10.511,14.509 
		10.593,14.6 10.681,14.678 	"/>
	<polygon fill="#FFFFFF" stroke="#231F20" stroke-width="0.25" points="11.403,14.856 11.403,14.856 11.205,14.882 11.02,14.856 
		10.851,14.79 10.696,14.688 10.553,14.559 10.429,14.406 10.317,14.231 10.214,14.053 10.132,13.862 10.06,13.678 9.999,13.504 
		9.947,13.335 9.917,13.191 9.891,13.073 9.875,12.987 9.875,12.935 9.875,12.935 9.952,12.951 10.023,12.966 10.095,12.986 
		10.167,13.002 10.239,13.022 10.306,13.037 10.372,13.053 10.439,13.063 10.439,13.063 10.465,13.149 10.49,13.253 10.521,13.37 
		10.557,13.503 10.598,13.643 10.644,13.786 10.696,13.929 10.752,14.078 10.814,14.221 10.881,14.354 10.952,14.482 11.029,14.595 
		11.117,14.692 11.204,14.77 11.301,14.825 	"/>
	<polygon fill="#FFFFFF" stroke="#231F20" stroke-width="0.25" points="11.871,14.83 11.871,14.83 11.686,14.871 11.521,14.872 
		11.373,14.835 11.235,14.764 11.117,14.666 11.008,14.549 10.912,14.405 10.824,14.252 10.752,14.088 10.686,13.919 10.634,13.749 
		10.583,13.586 10.542,13.433 10.51,13.294 10.48,13.171 10.455,13.072 10.455,13.072 10.51,13.083 10.567,13.089 10.618,13.099 
		10.665,13.108 10.716,13.119 10.762,13.13 10.803,13.14 10.849,13.146 10.849,13.146 10.865,13.263 10.89,13.386 10.921,13.509 
		10.952,13.627 10.993,13.749 11.04,13.867 11.09,13.979 11.152,14.094 11.214,14.205 11.286,14.313 11.368,14.416 11.45,14.507 
		11.547,14.6 11.644,14.682 11.752,14.759 	"/>
	<polygon fill="#FFFFFF" stroke="#231F20" stroke-width="0.25" points="12.454,14.923 12.454,14.923 12.301,14.923 12.151,14.907 
		12.009,14.871 11.871,14.819 11.742,14.748 11.613,14.662 11.501,14.559 11.389,14.445 11.291,14.318 11.198,14.18 11.116,14.027 
		11.04,13.867 10.978,13.698 10.926,13.518 10.88,13.333 10.849,13.146 10.849,13.146 10.916,13.16 10.982,13.17 11.055,13.187 
		11.12,13.195 11.187,13.206 11.249,13.222 11.316,13.23 11.377,13.247 11.377,13.247 11.408,13.354 11.433,13.468 11.464,13.574 
		11.491,13.683 11.521,13.79 11.552,13.897 11.593,14 11.639,14.108 11.695,14.211 11.757,14.317 11.834,14.419 11.926,14.521 
		12.029,14.621 12.151,14.723 12.296,14.825 	"/>
	<polygon fill="#FFFFFF" stroke="#231F20" stroke-width="0.25" points="13.285,15.02 13.285,15.02 13.085,15.034 12.891,15.025 
		12.711,14.993 12.542,14.943 12.383,14.875 12.234,14.788 12.095,14.686 11.973,14.562 11.86,14.436 11.757,14.293 11.665,14.139 
		11.588,13.974 11.521,13.8 11.464,13.62 11.423,13.436 11.392,13.252 11.392,13.252 11.449,13.262 11.51,13.278 11.571,13.287 
		11.633,13.298 11.694,13.309 11.761,13.323 11.828,13.333 11.895,13.349 11.895,13.349 11.915,13.477 11.946,13.605 11.987,13.734 
		12.039,13.855 12.1,13.979 12.167,14.102 12.244,14.221 12.33,14.333 12.424,14.444 12.525,14.548 12.633,14.645 12.751,14.737 
		12.875,14.819 13.007,14.896 13.142,14.962 	"/>
	<polygon fill="#FFFFFF" stroke="#231F20" stroke-width="0.25" points="13.741,15.069 13.741,15.069 13.572,15.06 13.408,15.034 
		13.245,14.993 13.085,14.931 12.936,14.86 12.787,14.773 12.65,14.676 12.521,14.562 12.403,14.44 12.29,14.307 12.192,14.163 
		12.105,14.016 12.034,13.856 11.972,13.693 11.926,13.523 11.895,13.349 11.895,13.349 11.95,13.36 12.002,13.364 12.049,13.368 
		12.095,13.374 12.141,13.38 12.191,13.39 12.254,13.4 12.326,13.409 12.326,13.409 12.398,13.558 12.459,13.697 12.52,13.831 
		12.577,13.954 12.638,14.071 12.696,14.18 12.758,14.281 12.823,14.378 12.895,14.476 12.977,14.562 13.068,14.655 13.171,14.737 
		13.29,14.823 13.425,14.905 13.572,14.987 	"/>
	<polygon fill="#FFFFFF" stroke="#231F20" stroke-width="0.25" points="14.561,15.12 14.561,15.12 14.31,15.131 14.074,15.121 
		13.863,15.085 13.668,15.028 13.49,14.952 13.331,14.859 13.183,14.752 13.049,14.629 12.925,14.496 12.813,14.353 12.716,14.204 
		12.624,14.044 12.536,13.887 12.459,13.729 12.386,13.563 12.32,13.405 12.32,13.405 12.366,13.409 12.428,13.42 12.503,13.431 
		12.582,13.441 12.664,13.456 12.735,13.466 12.797,13.477 12.843,13.48 12.843,13.48 12.905,13.626 12.972,13.769 13.049,13.901 
		13.125,14.03 13.213,14.147 13.306,14.265 13.401,14.373 13.511,14.48 13.618,14.578 13.735,14.668 13.858,14.763 13.987,14.845 
		14.12,14.921 14.264,14.992 14.407,15.058 	"/>
	<polygon fill="#FFFFFF" stroke="#231F20" stroke-width="0.25" points="15.049,15.191 15.049,15.191 14.91,15.187 14.767,15.166 
		14.612,15.13 14.453,15.073 14.293,15.008 14.137,14.926 13.976,14.829 13.817,14.722 13.663,14.598 13.516,14.47 13.376,14.327 
		13.243,14.174 13.125,14.015 13.019,13.847 12.925,13.666 12.848,13.48 12.848,13.48 12.925,13.491 13.001,13.502 13.084,13.507 
		13.166,13.517 13.236,13.521 13.299,13.532 13.351,13.543 13.376,13.558 13.376,13.558 13.47,13.629 13.56,13.706 13.658,13.799 
		13.756,13.891 13.853,13.993 13.956,14.101 14.059,14.214 14.161,14.326 14.264,14.443 14.37,14.557 14.479,14.668 14.592,14.781 
		14.704,14.894 14.817,14.997 14.93,15.1 	"/>
	<polygon fill="#FFFFFF" stroke="#231F20" stroke-width="0.25" points="15.797,15.19 15.797,15.19 15.663,15.277 15.524,15.314 
		15.386,15.314 15.242,15.277 15.099,15.207 14.956,15.11 14.807,14.986 14.658,14.848 14.51,14.689 14.356,14.525 14.196,14.352 
		14.037,14.178 13.879,14.009 13.716,13.84 13.55,13.686 13.387,13.548 13.387,13.548 13.442,13.548 13.51,13.557 13.587,13.562 
		13.662,13.578 13.744,13.589 13.826,13.604 13.903,13.618 13.97,13.629 13.97,13.629 14.1,13.747 14.227,13.864 14.35,13.988 
		14.474,14.11 14.591,14.233 14.709,14.356 14.827,14.479 14.94,14.593 15.054,14.704 15.167,14.807 15.274,14.899 15.381,14.982 
		15.487,15.053 15.592,15.113 15.694,15.161 	"/>
	<polygon fill="#FFFFFF" stroke="#231F20" stroke-width="0.25" points="16.375,15.258 16.375,15.258 16.165,15.258 15.965,15.236 
		15.786,15.186 15.61,15.12 15.453,15.037 15.304,14.935 15.16,14.822 15.028,14.699 14.894,14.566 14.766,14.429 14.643,14.29 
		14.514,14.146 14.386,14.002 14.253,13.864 14.113,13.737 13.97,13.613 13.97,13.613 14.022,13.618 14.084,13.625 14.16,13.633 
		14.237,13.639 14.314,13.649 14.377,13.654 14.427,13.659 14.459,13.659 14.459,13.659 14.545,13.68 14.631,13.721 14.719,13.776 
		14.811,13.854 14.903,13.946 15,14.055 15.104,14.166 15.208,14.29 15.324,14.417 15.442,14.545 15.576,14.679 15.714,14.807 
		15.862,14.935 16.022,15.053 16.19,15.16 	"/>
	<polygon fill="#FFFFFF" stroke="#231F20" stroke-width="0.25" points="4.969,11.038 4.969,11.038 4.969,11.017 4.963,10.96 
		4.958,10.874 4.953,10.766 4.948,10.638 4.953,10.5 4.958,10.356 4.973,10.208 5.003,10.069 5.044,9.936 5.095,9.817 5.172,9.72 
		5.26,9.648 5.373,9.607 5.512,9.602 5.669,9.643 5.669,9.643 5.618,9.694 5.572,9.756 5.526,9.833 5.485,9.915 5.444,10.007 
		5.408,10.099 5.374,10.202 5.337,10.31 5.306,10.412 5.281,10.521 5.255,10.627 5.229,10.729 5.209,10.833 5.188,10.93 
		5.173,11.017 5.159,11.099 5.159,11.099 5.132,11.095 5.111,11.089 5.087,11.079 5.066,11.074 5.046,11.062 5.024,11.053 
		4.999,11.048 	"/>
	<polygon fill="#FFFFFF" stroke="#231F20" stroke-width="0.25" points="5.159,11.114 5.159,11.114 5.225,10.782 5.296,10.5 
		5.367,10.258 5.439,10.058 5.512,9.899 5.583,9.771 5.654,9.679 5.721,9.612 5.792,9.566 5.854,9.545 5.921,9.54 5.978,9.551 
		6.033,9.571 6.084,9.597 6.131,9.627 6.172,9.658 6.172,9.658 6.101,9.725 6.029,9.801 5.967,9.874 5.901,9.955 5.844,10.038 
		5.788,10.125 5.736,10.211 5.69,10.304 5.645,10.401 5.604,10.504 5.563,10.606 5.527,10.714 5.496,10.827 5.465,10.939 
		5.436,11.058 5.409,11.181 5.409,11.181 5.348,11.171 5.302,11.166 5.271,11.155 5.25,11.145 5.23,11.14 5.209,11.13 5.189,11.124 
			"/>
	<polygon fill="#FFFFFF" stroke="#231F20" stroke-width="0.25" points="5.415,11.211 5.415,11.211 5.43,11.089 5.456,10.95 
		5.496,10.796 5.547,10.632 5.614,10.463 5.69,10.299 5.772,10.14 5.865,9.991 5.962,9.857 6.064,9.745 6.172,9.658 6.285,9.601 
		6.403,9.581 6.521,9.601 6.633,9.668 6.751,9.786 6.751,9.786 6.659,9.853 6.572,9.929 6.49,10.006 6.414,10.083 6.336,10.166 
		6.27,10.257 6.208,10.35 6.152,10.442 6.095,10.544 6.05,10.647 6.003,10.755 5.968,10.868 5.932,10.985 5.907,11.109 
		5.881,11.237 5.86,11.37 5.86,11.37 5.804,11.354 5.742,11.334 5.676,11.313 5.609,11.288 5.548,11.263 5.492,11.242 5.445,11.222 
			"/>
	<polygon fill="#FFFFFF" stroke="#231F20" stroke-width="0.25" points="7.412,9.867 7.412,9.867 7.29,9.785 7.166,9.739 
		7.038,9.724 6.915,9.739 6.788,9.78 6.664,9.847 6.546,9.939 6.434,10.047 6.331,10.17 6.229,10.313 6.142,10.473 6.065,10.637 
		5.999,10.812 5.948,10.996 5.907,11.18 5.887,11.37 5.887,11.37 5.948,11.385 6.009,11.401 6.071,11.421 6.132,11.442 
		6.199,11.467 6.266,11.483 6.327,11.503 6.394,11.513 6.394,11.513 6.44,11.395 6.48,11.267 6.532,11.139 6.579,11.011 
		6.628,10.877 6.685,10.744 6.742,10.616 6.798,10.493 6.859,10.375 6.926,10.267 6.997,10.165 7.069,10.078 7.15,10 7.233,9.938 
		7.32,9.893 	"/>
	<polygon fill="#FFFFFF" stroke="#231F20" stroke-width="0.25" points="7.977,10.021 7.977,10.021 7.782,9.934 7.608,9.888 
		7.453,9.883 7.315,9.908 7.192,9.965 7.084,10.052 6.987,10.16 6.9,10.288 6.823,10.431 6.757,10.59 6.69,10.755 6.628,10.918 
		6.568,11.088 6.511,11.257 6.45,11.415 6.384,11.564 6.384,11.564 6.44,11.569 6.491,11.585 6.542,11.6 6.594,11.62 6.645,11.636 
		6.697,11.656 6.753,11.672 6.809,11.682 6.809,11.682 6.814,11.662 6.819,11.61 6.834,11.543 6.85,11.451 6.875,11.344 
		6.912,11.221 6.953,11.087 7.008,10.949 7.074,10.811 7.152,10.672 7.249,10.534 7.356,10.405 7.484,10.282 7.628,10.18 
		7.792,10.087 	"/>
	<polygon fill="#FFFFFF" stroke="#231F20" stroke-width="0.25" points="8.704,10.127 8.704,10.127 8.586,10.041 8.453,9.984 
		8.31,9.964 8.166,9.969 8.013,10 7.858,10.062 7.71,10.144 7.562,10.247 7.418,10.374 7.285,10.519 7.167,10.682 7.059,10.862 
		6.968,11.051 6.896,11.256 6.85,11.467 6.824,11.692 7.352,11.83 7.352,11.83 7.383,11.744 7.424,11.64 7.464,11.533 7.516,11.415 
		7.578,11.292 7.639,11.164 7.71,11.035 7.787,10.908 7.875,10.779 7.972,10.656 8.074,10.543 8.182,10.435 8.299,10.338 
		8.428,10.256 8.561,10.184 	"/>
	<polygon fill="#FFFFFF" stroke="#231F20" stroke-width="0.25" points="7.348,11.845 7.348,11.845 7.424,11.86 7.521,11.881 
		7.619,11.912 7.727,11.942 7.829,11.979 7.927,12.004 8.014,12.03 8.085,12.05 8.085,12.05 8.137,11.921 8.193,11.788 8.25,11.655 
		8.305,11.517 8.362,11.379 8.423,11.245 8.49,11.112 8.556,10.978 8.628,10.855 8.705,10.743 8.787,10.635 8.874,10.538 
		8.961,10.45 9.059,10.378 9.166,10.321 9.273,10.281 9.273,10.281 9.181,10.219 9.079,10.174 8.97,10.143 8.853,10.133 
		8.73,10.143 8.602,10.174 8.474,10.225 8.341,10.302 8.207,10.399 8.074,10.522 7.941,10.676 7.813,10.852 7.69,11.056 
		7.568,11.286 7.455,11.553 	"/>
	<polygon fill="#FFFFFF" stroke="#231F20" stroke-width="0.25" points="9.919,10.501 9.919,10.501 9.708,10.389 9.519,10.321 
		9.345,10.306 9.186,10.333 9.048,10.393 8.915,10.485 8.802,10.604 8.694,10.748 8.603,10.907 8.515,11.076 8.439,11.255 
		8.368,11.435 8.295,11.609 8.229,11.778 8.167,11.932 8.106,12.071 8.106,12.071 8.178,12.081 8.239,12.096 8.296,12.106 
		8.352,12.121 8.409,12.136 8.47,12.152 8.536,12.163 8.613,12.177 8.613,12.177 8.681,12.04 8.741,11.9 8.803,11.768 8.865,11.639 
		8.926,11.511 8.992,11.394 9.059,11.275 9.125,11.168 9.203,11.06 9.284,10.962 9.366,10.871 9.458,10.783 9.561,10.701 
		9.668,10.629 9.791,10.562 	"/>
	<polygon fill="#FFFFFF" stroke="#231F20" stroke-width="0.25" points="10.556,10.685 10.556,10.685 10.365,10.583 10.186,10.531 
		10.016,10.521 9.852,10.546 9.704,10.609 9.561,10.701 9.427,10.814 9.304,10.947 9.191,11.101 9.084,11.26 8.987,11.424 
		8.9,11.594 8.818,11.762 8.747,11.916 8.686,12.065 8.628,12.193 8.628,12.193 8.706,12.209 8.773,12.224 8.834,12.239 
		8.89,12.249 8.952,12.265 9.013,12.28 9.085,12.29 9.167,12.305 9.167,12.305 9.26,12.1 9.351,11.911 9.438,11.736 9.525,11.578 
		9.607,11.434 9.685,11.305 9.766,11.192 9.843,11.085 9.925,10.998 10.007,10.921 10.089,10.854 10.175,10.798 10.263,10.756 
		10.354,10.721 10.453,10.7 	"/>
	<polygon fill="#FFFFFF" stroke="#231F20" stroke-width="0.25" points="11.037,10.823 11.037,10.823 10.853,10.735 10.678,10.694 
		10.515,10.694 10.354,10.726 10.211,10.787 10.073,10.875 9.945,10.988 9.822,11.116 9.715,11.26 9.612,11.413 9.516,11.572 
		9.434,11.73 9.351,11.89 9.285,12.044 9.224,12.183 9.167,12.311 9.167,12.311 9.229,12.326 9.285,12.341 9.342,12.352 
		9.393,12.367 9.449,12.377 9.505,12.387 9.567,12.402 9.634,12.413 9.634,12.413 9.665,12.31 9.71,12.197 9.767,12.084 
		9.833,11.961 9.905,11.839 9.992,11.715 10.079,11.593 10.176,11.469 10.278,11.356 10.386,11.243 10.494,11.141 10.601,11.054 
		10.714,10.971 10.822,10.905 10.929,10.854 	"/>
	<polygon fill="#FFFFFF" stroke="#231F20" stroke-width="0.25" points="11.616,10.971 11.616,10.971 11.427,10.869 11.242,10.823 
		11.057,10.828 10.883,10.879 10.714,10.961 10.55,11.079 10.396,11.218 10.253,11.372 10.12,11.536 10.002,11.706 9.895,11.87 
		9.808,12.028 9.736,12.167 9.68,12.284 9.648,12.372 9.634,12.423 9.634,12.423 9.71,12.438 9.777,12.453 9.843,12.469 
		9.911,12.484 9.978,12.5 10.039,12.509 10.105,12.52 10.172,12.53 10.172,12.53 10.218,12.443 10.269,12.335 10.331,12.217 
		10.403,12.094 10.479,11.956 10.561,11.817 10.648,11.685 10.74,11.546 10.837,11.417 10.94,11.3 11.047,11.192 11.155,11.104 
		11.268,11.033 11.38,10.986 11.499,10.966 	"/>
	<polygon fill="#FFFFFF" stroke="#231F20" stroke-width="0.25" points="12.037,11.135 12.037,11.135 11.867,11.022 11.704,10.96 
		11.549,10.946 11.396,10.971 11.252,11.033 11.114,11.125 10.985,11.238 10.863,11.376 10.75,11.525 10.643,11.684 10.545,11.848 
		10.454,12.012 10.376,12.166 10.305,12.31 10.249,12.433 10.197,12.536 10.197,12.536 10.259,12.545 10.31,12.561 10.356,12.577 
		10.397,12.591 10.444,12.606 10.484,12.622 10.526,12.633 10.571,12.642 10.571,12.642 10.618,12.515 10.674,12.386 10.73,12.263 
		10.792,12.14 10.864,12.017 10.935,11.905 11.017,11.791 11.104,11.684 11.196,11.581 11.298,11.489 11.401,11.407 11.514,11.33 
		11.637,11.263 11.76,11.207 11.893,11.166 	"/>
	<polygon fill="#FFFFFF" stroke="#231F20" stroke-width="0.25" points="12.57,11.257 12.57,11.257 12.421,11.201 12.272,11.166 
		12.119,11.155 11.975,11.166 11.826,11.196 11.688,11.243 11.55,11.314 11.411,11.401 11.284,11.504 11.16,11.627 11.042,11.761 
		10.93,11.91 10.822,12.073 10.73,12.253 10.638,12.443 10.562,12.642 10.562,12.642 10.628,12.653 10.694,12.663 10.762,12.678 
		10.828,12.699 10.895,12.714 10.961,12.735 11.027,12.75 11.095,12.76 11.095,12.76 11.14,12.647 11.187,12.529 11.233,12.417 
		11.279,12.298 11.335,12.186 11.391,12.079 11.458,11.966 11.53,11.863 11.617,11.765 11.708,11.668 11.816,11.581 11.935,11.498 
		12.067,11.427 12.216,11.36 12.385,11.303 	"/>
	<polygon fill="#FFFFFF" stroke="#231F20" stroke-width="0.25" points="13.328,11.436 13.328,11.436 13.134,11.354 12.939,11.303 
		12.76,11.278 12.58,11.273 12.411,11.298 12.246,11.345 12.094,11.412 11.944,11.498 11.812,11.606 11.679,11.729 11.56,11.868 
		11.448,12.022 11.346,12.191 11.258,12.371 11.176,12.555 11.105,12.754 11.105,12.754 11.167,12.766 11.228,12.775 11.299,12.786 
		11.367,12.796 11.438,12.806 11.51,12.816 11.582,12.827 11.653,12.837 11.653,12.837 11.689,12.692 11.741,12.56 11.796,12.426 
		11.868,12.298 11.945,12.18 12.032,12.067 12.125,11.96 12.226,11.862 12.34,11.77 12.462,11.693 12.591,11.621 12.724,11.56 
		12.867,11.513 13.015,11.472 13.169,11.447 	"/>
	<polygon fill="#FFFFFF" stroke="#231F20" stroke-width="0.25" points="13.701,11.477 13.701,11.477 13.528,11.451 13.359,11.436 
		13.189,11.441 13.026,11.462 12.863,11.503 12.708,11.555 12.56,11.622 12.416,11.704 12.282,11.801 12.155,11.913 12.042,12.037 
		11.935,12.175 11.843,12.329 11.761,12.493 11.694,12.673 11.644,12.862 11.644,12.862 11.705,12.868 11.756,12.872 11.807,12.883 
		11.858,12.893 11.909,12.903 11.961,12.914 12.022,12.929 12.089,12.938 12.089,12.938 12.176,12.79 12.258,12.646 12.33,12.518 
		12.396,12.391 12.468,12.277 12.535,12.17 12.602,12.067 12.677,11.975 12.76,11.888 12.851,11.81 12.955,11.739 13.067,11.672 
		13.2,11.615 13.345,11.564 13.513,11.518 	"/>
	<polygon fill="#FFFFFF" stroke="#231F20" stroke-width="0.25" points="14.517,11.583 14.517,11.583 14.261,11.523 14.021,11.486 
		13.8,11.477 13.595,11.497 13.406,11.539 13.23,11.6 13.072,11.677 12.929,11.78 12.79,11.892 12.667,12.021 12.556,12.16 
		12.448,12.308 12.35,12.462 12.258,12.626 12.176,12.79 12.094,12.959 12.094,12.959 12.135,12.965 12.191,12.969 12.253,12.985 
		12.32,12.994 12.386,13.011 12.448,13.026 12.503,13.03 12.551,13.035 12.551,13.035 12.627,12.882 12.709,12.744 12.801,12.61 
		12.898,12.487 13.001,12.369 13.108,12.261 13.227,12.164 13.349,12.072 13.476,11.989 13.611,11.913 13.749,11.846 13.892,11.779 
		14.041,11.723 14.195,11.671 14.354,11.625 	"/>
	<polygon fill="#FFFFFF" stroke="#231F20" stroke-width="0.25" points="15.004,11.635 15.004,11.635 14.86,11.609 14.711,11.604 
		14.548,11.609 14.379,11.635 14.21,11.671 14.035,11.723 13.861,11.789 13.688,11.872 13.514,11.968 13.351,12.082 13.19,12.205 
		13.036,12.343 12.899,12.497 12.771,12.661 12.657,12.841 12.561,13.035 12.561,13.035 12.632,13.041 12.704,13.051 12.777,13.067 
		12.847,13.082 12.909,13.098 12.961,13.111 13.001,13.117 13.027,13.111 13.027,13.111 13.131,13.051 13.232,12.979 13.34,12.896 
		13.452,12.804 13.564,12.708 13.682,12.604 13.806,12.501 13.928,12.395 14.058,12.286 14.184,12.179 14.319,12.071 14.45,11.973 
		14.589,11.876 14.724,11.788 14.866,11.707 	"/>
	<polygon fill="#FFFFFF" stroke="#231F20" stroke-width="0.25" points="15.686,11.829 15.686,11.829 15.558,11.701 15.419,11.625 
		15.276,11.594 15.127,11.604 14.974,11.645 14.811,11.722 14.646,11.825 14.472,11.942 14.298,12.086 14.118,12.235 13.938,12.395 
		13.76,12.553 13.576,12.711 13.391,12.861 13.207,13 13.023,13.123 13.023,13.123 13.077,13.132 13.145,13.139 13.227,13.144 
		13.309,13.147 13.396,13.152 13.483,13.152 13.56,13.152 13.628,13.152 13.628,13.152 13.766,13.051 13.897,12.943 14.031,12.834 
		14.155,12.722 14.278,12.614 14.395,12.506 14.514,12.398 14.631,12.296 14.753,12.204 14.872,12.117 14.995,12.04 15.122,11.973 
		15.255,11.916 15.395,11.87 15.539,11.844 	"/>
	<polygon fill="#FFFFFF" stroke="#231F20" stroke-width="0.25" points="16.199,11.89 16.199,11.89 15.984,11.839 15.783,11.819 
		15.595,11.829 15.415,11.865 15.246,11.927 15.082,12.003 14.923,12.101 14.77,12.209 14.621,12.332 14.473,12.455 14.328,12.588 
		14.18,12.722 14.031,12.85 13.883,12.978 13.724,13.091 13.566,13.199 13.566,13.199 13.616,13.204 13.684,13.215 13.76,13.224 
		13.838,13.229 13.915,13.24 13.981,13.25 14.031,13.255 14.062,13.261 14.062,13.261 14.155,13.26 14.247,13.234 14.345,13.188 
		14.446,13.121 14.55,13.039 14.662,12.942 14.779,12.834 14.903,12.721 15.031,12.604 15.169,12.48 15.317,12.362 15.472,12.25 
		15.64,12.142 15.814,12.044 15.998,11.957 	"/>
	<polygon fill="#FFFFFF" stroke="#231F20" stroke-width="0.25" points="16.844,12.069 16.844,12.069 16.655,11.961 16.454,11.916 
		16.261,11.916 16.061,11.957 15.86,12.034 15.661,12.142 15.466,12.27 15.277,12.408 15.097,12.562 14.924,12.716 14.754,12.86 
		14.6,12.993 14.462,13.106 14.334,13.192 14.222,13.244 14.125,13.26 14.125,13.26 14.207,13.27 14.293,13.285 14.391,13.301 
		14.493,13.317 14.596,13.326 14.698,13.342 14.795,13.347 14.884,13.352 14.884,13.352 15.027,13.244 15.154,13.142 15.272,13.039 
		15.384,12.941 15.486,12.843 15.584,12.747 15.687,12.654 15.784,12.567 15.882,12.485 15.989,12.408 16.102,12.335 16.225,12.27 
		16.357,12.208 16.501,12.156 16.665,12.11 	"/>
	<g>
		<polygon fill="#FFFFFF" stroke="#231F20" stroke-width="0.25" points="4.43,9.966 4.43,9.966 4.404,9.916 4.383,9.859 
			4.363,9.802 4.348,9.746 4.332,9.685 4.317,9.619 4.307,9.558 4.301,9.49 4.295,9.429 4.291,9.362 4.291,9.295 4.295,9.234 
			4.301,9.172 4.311,9.111 4.326,9.05 4.342,8.993 4.342,8.993 4.26,9.101 4.198,9.219 4.152,9.332 4.127,9.449 4.117,9.572 
			4.117,9.695 4.132,9.818 4.158,9.941 4.189,10.064 4.23,10.182 4.276,10.3 4.322,10.417 4.373,10.531 4.42,10.643 4.466,10.745 
			4.512,10.848 4.512,10.848 4.502,10.828 4.497,10.792 4.492,10.756 4.492,10.71 4.486,10.653 4.486,10.597 4.486,10.535 
			4.486,10.469 4.481,10.402 4.481,10.336 4.476,10.264 4.471,10.197 4.465,10.136 4.455,10.074 4.445,10.018 		"/>
		<polygon fill="#FFFFFF" stroke="#231F20" stroke-width="0.25" points="2.867,12.095 2.867,12.095 2.965,12.039 3.063,11.977 
			3.155,11.92 3.247,11.864 3.333,11.812 3.421,11.756 3.503,11.705 3.585,11.649 3.672,11.597 3.753,11.546 3.836,11.49 
			3.923,11.438 4.005,11.386 4.093,11.341 4.184,11.29 4.277,11.238 4.277,11.238 4.196,11.32 4.113,11.402 4.031,11.484 
			3.949,11.561 3.862,11.643 3.774,11.715 3.688,11.787 3.595,11.854 3.509,11.915 3.417,11.967 3.329,12.013 3.237,12.049 
			3.145,12.08 3.053,12.095 2.96,12.1 		"/>
		<polygon fill="#FFFFFF" stroke="#231F20" stroke-width="0.25" points="3.63,10.044 3.63,10.044 3.702,10.085 3.769,10.131 
			3.835,10.177 3.897,10.223 3.958,10.27 4.014,10.32 4.071,10.377 4.127,10.429 4.179,10.485 4.23,10.541 4.281,10.597 
			4.328,10.659 4.379,10.715 4.425,10.777 4.471,10.838 4.517,10.899 4.517,10.899 4.497,10.833 4.471,10.766 4.445,10.694 
			4.415,10.623 4.384,10.551 4.349,10.484 4.308,10.417 4.26,10.352 4.21,10.29 4.148,10.239 4.081,10.188 4.01,10.141 
			3.927,10.105 3.84,10.075 3.737,10.055 		"/>
		<polygon fill="#FFFFFF" stroke="#231F20" stroke-width="0.25" points="4.393,9.429 4.393,9.429 4.414,9.531 4.429,9.633 
			4.45,9.736 4.465,9.828 4.476,9.926 4.491,10.018 4.502,10.11 4.517,10.202 4.527,10.295 4.543,10.387 4.552,10.474 4.568,10.566 
			4.584,10.659 4.599,10.751 4.62,10.843 4.641,10.94 4.641,10.94 4.651,10.828 4.666,10.721 4.676,10.607 4.687,10.495 
			4.691,10.387 4.696,10.279 4.691,10.171 4.686,10.069 4.676,9.966 4.66,9.874 4.634,9.782 4.604,9.695 4.568,9.618 4.516,9.546 
			4.46,9.485 		"/>
		<polygon fill="#FFFFFF" stroke="#231F20" stroke-width="0.25" points="3.845,9.26 3.845,9.26 3.752,9.347 3.696,9.445 
			3.671,9.547 3.666,9.654 3.686,9.762 3.727,9.875 3.784,9.987 3.851,10.1 3.927,10.208 4.01,10.316 4.097,10.418 4.183,10.51 
			4.267,10.603 4.337,10.679 4.4,10.751 4.451,10.807 4.451,10.807 4.44,10.653 4.42,10.521 4.394,10.408 4.353,10.306 
			4.312,10.218 4.26,10.141 4.209,10.07 4.152,10.003 4.102,9.936 4.045,9.87 3.994,9.798 3.953,9.716 3.912,9.624 3.881,9.521 
			3.855,9.398 		"/>
		<polygon fill="#FFFFFF" stroke="#231F20" stroke-width="0.25" points="4.502,10.899 4.502,10.899 4.502,10.792 4.507,10.689 
			4.512,10.587 4.517,10.484 4.522,10.387 4.532,10.29 4.543,10.192 4.552,10.099 4.568,10.007 4.583,9.911 4.608,9.818 
			4.628,9.726 4.655,9.633 4.69,9.541 4.722,9.449 4.763,9.356 4.763,9.356 4.613,9.5 4.491,9.639 4.403,9.767 4.342,9.891 
			4.301,10.008 4.281,10.115 4.276,10.223 4.287,10.32 4.312,10.413 4.337,10.5 4.374,10.582 4.41,10.653 4.44,10.726 4.471,10.787 
			4.492,10.848 		"/>
		<polygon fill="#FFFFFF" stroke="#231F20" stroke-width="0.25" points="3,11.254 3,11.254 3.083,11.27 3.165,11.285 3.247,11.295 
			3.329,11.305 3.41,11.311 3.493,11.315 3.574,11.315 3.651,11.315 3.734,11.311 3.811,11.311 3.893,11.3 3.969,11.295 
			4.051,11.29 4.128,11.279 4.21,11.269 4.287,11.259 4.287,11.259 4.22,11.29 4.154,11.315 4.082,11.345 4.01,11.372 3.934,11.397 
			3.856,11.417 3.774,11.438 3.693,11.449 3.611,11.454 3.524,11.454 3.437,11.449 3.349,11.428 3.262,11.403 3.175,11.367 
			3.088,11.316 		"/>
		<polygon fill="#FFFFFF" stroke="#231F20" stroke-width="0.25" points="3.477,11.669 3.477,11.669 3.416,11.679 3.36,11.69 
			3.298,11.706 3.237,11.72 3.175,11.747 3.114,11.767 3.058,11.792 2.996,11.823 2.94,11.854 2.883,11.89 2.832,11.926 
			2.781,11.961 2.734,12.003 2.694,12.043 2.652,12.085 2.617,12.131 2.617,12.131 2.652,12.008 2.709,11.9 2.775,11.808 
			2.857,11.721 2.95,11.649 3.053,11.582 3.165,11.525 3.282,11.479 3.406,11.439 3.529,11.397 3.657,11.366 3.785,11.336 
			3.913,11.31 4.036,11.284 4.148,11.264 4.261,11.238 4.261,11.238 4.205,11.259 4.128,11.3 4.036,11.361 3.923,11.428 3.811,11.5 
			3.693,11.566 3.581,11.628 		"/>
		<polygon fill="#FFFFFF" stroke="#231F20" stroke-width="0.25" points="3.242,12.586 3.242,12.586 3.197,12.469 3.18,12.356 
			3.196,12.244 3.237,12.141 3.298,12.043 3.38,11.946 3.478,11.854 3.585,11.771 3.698,11.689 3.816,11.617 3.938,11.546 
			4.057,11.484 4.164,11.428 4.267,11.376 4.354,11.331 4.42,11.289 4.42,11.289 4.349,11.438 4.277,11.561 4.2,11.658 
			4.128,11.746 4.051,11.812 3.975,11.874 3.898,11.92 3.822,11.967 3.745,12.012 3.667,12.063 3.591,12.115 3.519,12.176 
			3.447,12.253 3.376,12.346 3.309,12.453 		"/>
		<polygon fill="#FFFFFF" stroke="#231F20" stroke-width="0.25" points="4.533,11.324 4.533,11.324 4.476,11.412 4.42,11.499 
			4.364,11.586 4.313,11.668 4.267,11.75 4.221,11.837 4.175,11.92 4.134,12.002 4.093,12.089 4.058,12.176 4.021,12.258 
			3.99,12.345 3.965,12.438 3.939,12.524 3.919,12.617 3.899,12.715 3.899,12.715 3.847,12.52 3.822,12.351 3.816,12.197 
			3.832,12.063 3.863,11.951 3.908,11.848 3.964,11.761 4.026,11.689 4.098,11.622 4.169,11.566 4.246,11.52 4.318,11.479 
			4.384,11.438 4.446,11.402 4.492,11.361 		"/>
	</g>
</g>
</svg>
