<?xml version="1.0" encoding="utf-8"?>
<!-- Generator: Adobe Illustrator 15.1.0, SVG Export Plug-In . SVG Version: 6.00 Build 0)  -->
<!DOCTYPE svg PUBLIC "-//W3C//DTD SVG 1.1//EN" "http://www.w3.org/Graphics/SVG/1.1/DTD/svg11.dtd">
<svg version="1.1"
	 id="svg2" xmlns:inkscape="http://www.inkscape.org/namespaces/inkscape" sodipodi:docname="twitter_bootstrap_logo.svg" inkscape:version="0.48.1 r9760" xmlns:sodipodi="http://sodipodi.sourceforge.net/DTD/sodipodi-0.dtd" xmlns:rdf="http://www.w3.org/1999/02/22-rdf-syntax-ns#" xmlns:svg="http://www.w3.org/2000/svg" xmlns:cc="http://creativecommons.org/ns#" xmlns:dc="http://purl.org/dc/elements/1.1/"
	 xmlns="http://www.w3.org/2000/svg" xmlns:xlink="http://www.w3.org/1999/xlink" x="0px" y="0px" width="2000px"
	 height="2008.275px" viewBox="0 0 2000 2008.275" enable-background="new 0 0 2000 2008.275" xml:space="preserve">
<sodipodi:namedview  pagecolor="#ffffff" borderopacity="1" objecttolerance="10" bordercolor="#666666" guidetolerance="10" gridtolerance="10" inkscape:window-maximized="0" inkscape:pageopacity="0" inkscape:pageshadow="2" inkscape:window-width="864" inkscape:window-height="623" id="namedview2996" showgrid="false" inkscape:cx="116.80866" fit-margin-top="0" fit-margin-left="0" fit-margin-right="0" fit-margin-bottom="0" inkscape:zoom="0.24896372" inkscape:cy="407.66551" inkscape:window-x="0" inkscape:window-y="0" inkscape:current-layer="svg2">
	</sodipodi:namedview>
<g id="layer1" transform="matrix(15.623041,0,0,15.623041,-3987.6024,-6644.8835)">
	<path id="rect3050" fill="#231F20" stroke="#000000" stroke-miterlimit="10" d="M275.918,425.326h86.657
		c11.421,0,20.679,9.259,20.679,20.68v87.187c0,11.421-9.259,20.68-20.679,20.68h-86.657c-11.421,0-20.679-9.259-20.679-20.68
		v-87.187C255.239,434.584,264.497,425.326,275.918,425.326z"/>
	<g id="text3836" transform="scale(1.0052013,0.99482561)">
		<path id="path3841" inkscape:connector-curvature="0" fill="#FFFFFF" d="M318.556,483.165c3.252,0,5.718-0.715,7.398-2.145
			c1.68-1.43,2.52-3.538,2.52-6.326c0-2.752-0.84-4.843-2.52-6.273c-1.68-1.465-4.146-2.198-7.398-2.198h-11.419v16.941H318.556
			 M319.253,518.173c4.146,0,7.255-0.876,9.328-2.627c2.109-1.751,3.163-4.396,3.163-7.935c0-3.467-1.037-6.058-3.109-7.774
			c-2.073-1.751-5.2-2.627-9.382-2.627h-12.116v20.962H319.253 M338.446,489.384c4.432,1.287,7.863,3.663,10.293,7.13
			c2.43,3.467,3.645,7.72,3.646,12.76c0,7.72-2.609,13.474-7.827,17.263c-5.218,3.789-13.153,5.683-23.803,5.683h-34.258v-80.042
			h30.987c11.115,0,19.157,1.68,24.125,5.039c5.004,3.36,7.506,8.739,7.506,16.137c0,3.896-0.911,7.22-2.734,9.972
			C344.558,486.042,341.913,488.062,338.446,489.384"/>
	</g>
</g>
</svg>
