<?xml version="1.0" encoding="utf-8"?>
<!-- Generator: Adobe Illustrator 16.0.0, SVG Export Plug-In . SVG Version: 6.00 Build 0)  -->
<!DOCTYPE svg PUBLIC "-//W3C//DTD SVG 1.1//EN" "http://www.w3.org/Graphics/SVG/1.1/DTD/svg11.dtd">
<svg version="1.1" id="Layer_1" xmlns="http://www.w3.org/2000/svg" xmlns:xlink="http://www.w3.org/1999/xlink" x="0px" y="0px"
	 width="24px" height="24px" viewBox="0 0 24 24" enable-background="new 0 0 24 24" xml:space="preserve">
<path d="M8.512,0.16C4.917,0.605,2.695,1.662,2.43,3.069C2.382,3.297,2.382,4.571,2.405,5.905C2.454,7.901,2.489,8.406,2.67,8.729
	c0.192,0.373,0.192,0.432,0,0.937c-0.181,0.468-0.193,0.83-0.133,2.776c0.049,1.227,0.146,2.416,0.229,2.632
	c0.106,0.301,0.106,0.468,0,0.71c-0.181,0.384-0.193,3.774-0.024,4.794c0.071,0.481,0.228,0.855,0.456,1.143
	c1.07,1.334,3.907,2.127,8.076,2.259c5.18,0.169,9.134-0.805,10.071-2.478c0.252-0.431,0.265-0.625,0.265-2.823
	c0-1.862-0.036-2.452-0.192-2.824c-0.156-0.396-0.156-0.529-0.036-0.758c0.109-0.204,0.146-0.899,0.122-2.56
	c-0.025-2.38-0.06-2.729-0.325-3.113c-0.133-0.193-0.121-0.288,0.023-0.589c0.156-0.288,0.192-0.817,0.18-2.92
	c-0.011-1.491-0.071-2.728-0.156-2.956c-0.324-0.997-1.767-1.911-3.725-2.38C15.096,0.016,11.203-0.163,8.512,0.16z M9.065,1.29
	c-0.036,0.06,0.637,0.072,1.538,0.036c1.335-0.048,4.854,0.156,4.735,0.276c-0.024,0.024-0.565,0.097-1.214,0.169
	c-0.662,0.072-1.299,0.193-1.442,0.264c-0.24,0.132-0.24,0.144-0.036,0.3c0.205,0.145,0.192,0.156-0.12,0.229
	c-0.986,0.204-1.623,0.457-1.851,0.745c-0.577,0.733-0.072,1.466,1.166,1.73c0.938,0.193,4.64,0.073,5.66-0.18
	c1.13-0.288,1.707-0.613,1.707-0.973c0-0.492-0.724-0.854-2.464-1.214c-0.927-0.18-0.336-0.217,0.816-0.036
	c1.143,0.181,2.068,0.529,2.367,0.914c0.217,0.288,0.239,0.48,0.239,2.571c0,2.584,0.024,2.523-1.152,3.065
	c-1.707,0.806-4.483,1.106-9.304,1.021c-0.912-0.024-0.985-0.036-0.732-0.181c0.252-0.144,0.169-0.168-0.841-0.229
	C6.733,9.715,5.506,9.366,4.93,8.91c-0.697-0.553-1.143-1.55-1.201-2.728c-0.06-1.118,0.155-2.404,0.385-2.32
	c0.083,0.035,0.264-0.169,0.433-0.468c0.48-0.913,1.526-1.539,3.246-1.971C8.813,1.17,9.16,1.134,9.065,1.29z M4.546,10.304
	c0,0.492,0.24,0.696,1.177,0.972c3.39,1.022,11.033,0.89,13.222-0.228c0.444-0.229,0.504-0.301,0.504-0.672
	c0-0.457,0.12-0.529,0.407-0.228c0.229,0.228,0.219,0.024,0.192,2.512l-0.011,2.043l-0.35,0.325
	c-0.743,0.685-3.328,1.225-6.489,1.37c-3.918,0.18-8.402-0.588-9.086-1.562c-0.133-0.193-0.169-0.71-0.169-2.344
	c0-1.778,0.023-2.127,0.203-2.318C4.425,9.861,4.545,9.909,4.546,10.304L4.546,10.304z M4.906,17.179
	c1.034,0.757,6.166,1.262,9.639,0.961c1.91-0.168,3.557-0.48,4.35-0.829c0.53-0.24,0.554-0.277,0.554-0.733
	c0-0.337,0.048-0.493,0.168-0.493c0.409,0,0.469,0.325,0.445,2.536c-0.013,1.202-0.06,2.249-0.084,2.332
	c-0.097,0.24-1.118,0.745-1.973,0.962c-1.453,0.384-2.813,0.553-4.987,0.625c-4.015,0.133-7.788-0.48-8.809-1.43
	c-0.253-0.252-0.266-0.335-0.266-2.428c0-2.079,0.013-2.175,0.277-2.452l0.265-0.289l0.06,0.517
	C4.593,16.818,4.689,17.022,4.906,17.179L4.906,17.179z"/>
</svg>
