<?xml version="1.0" encoding="utf-8"?>
<!-- Generator: Adobe Illustrator 15.1.0, SVG Export Plug-In . SVG Version: 6.00 Build 0)  -->
<!DOCTYPE svg PUBLIC "-//W3C//DTD SVG 1.1//EN" "http://www.w3.org/Graphics/SVG/1.1/DTD/svg11.dtd">
<svg version="1.1" id="Layer_1" xmlns="http://www.w3.org/2000/svg" xmlns:xlink="http://www.w3.org/1999/xlink" x="0px" y="0px"
	 width="24px" height="24px" viewBox="0 0 24 24" enable-background="new 0 0 24 24" xml:space="preserve">
<path id="Github__x28_alt_x29__3_" d="M17.527,5.599c0.309,0.705,0.515,1.885,0.213,2.745c1.226,1.054,1.66,3.609,1.058,5.707
	c1.757,0.137,3.849-0.062,5.202,0.477c-1.264-0.164-2.994-0.48-4.617-0.373c-0.308,0.023-0.771-0.012-0.748,0.422
	c1.895,0.15,3.77,0.307,5.315,0.791c-1.541-0.25-3.4-0.629-5.315-0.686c-0.779,1.553-2.371,2.322-4.566,2.484
	c0.234,0.516,0.695,0.707,0.797,1.541c0.164,1.225-0.245,3.027,0.16,3.85c0.205,0.395,0.531,0.402,0.746,0.732
	c-0.537,0.646-1.869-0.07-2.017-0.732c-0.258-1.148,0.396-2.924-0.321-3.701c0.049,1.248-0.287,3.004,0.049,4.123
	c0.141,0.441,0.535,0.607,0.435,1.006c-2.5,0.256-1.455-3.23-1.866-5.287c-0.375,0.035-0.211,0.562-0.212,0.791
	c-0.01,2.014,0.411,4.76-1.749,4.494c-0.066-0.418,0.293-0.562,0.426-0.953c0.396-1.127-0.074-2.812,0.105-4.174
	c-0.824,0.627,0.09,2.793-0.423,3.912c-0.294,0.637-1.244,0.918-1.967,0.635c0.094-0.475,0.587-0.4,0.797-0.846
	c0.292-0.625,0.001-1.518,0.105-2.434c-1.527,0.305-2.71-0.045-3.293-1.006c-0.257-0.428-0.319-0.939-0.634-1.316
	c-0.307-0.379-0.808-0.426-0.958-0.943c1.895-0.461,1.966,1.945,3.667,1.998c0.524,0.021,0.793-0.146,1.275-0.26
	c0.138-0.607,0.423-1.055,0.847-1.379c-2.112-0.285-3.858-0.943-4.669-2.533c-1.922,0.094-3.681,0.352-5.315,0.744
	c1.483-0.535,3.303-0.732,5.259-0.793c-0.118-0.693-1.126-0.504-1.75-0.48C2.393,14.201,0.926,14.352,0,14.527
	c1.346-0.479,3.224-0.42,5.042-0.424C4.488,12.36,4.679,9.586,5.896,8.552c-0.344-0.866-0.237-2.276,0.21-2.953
	c1.357,0.059,2.177,0.647,3.031,1.217c1.054-0.302,2.16-0.454,3.609-0.374c0.609,0.034,1.24,0.306,1.693,0.267
	c0.447-0.044,0.939-0.547,1.381-0.745C16.389,5.716,16.873,5.622,17.527,5.599z"/>
</svg>
