<?xml version="1.0" encoding="utf-8"?>
<!-- Generator: Adobe Illustrator 16.0.0, SVG Export Plug-In . SVG Version: 6.00 Build 0)  -->
<!DOCTYPE svg PUBLIC "-//W3C//DTD SVG 1.1//EN" "http://www.w3.org/Graphics/SVG/1.1/DTD/svg11.dtd">
<svg version="1.1" id="Layer_1" xmlns="http://www.w3.org/2000/svg" xmlns:xlink="http://www.w3.org/1999/xlink" x="0px" y="0px"
	 width="24px" height="24px" viewBox="0 0 24 24" enable-background="new 0 0 24 24" xml:space="preserve">
<path d="M20.025,22.125c-0.764,0.39-1.782,1.248-2.157,1.608c-0.283,0.269-1.446,0.403-2.104,0.067
	c-0.763-0.39-0.362-1.008-1.54-1.044c-0.59-0.015-1.166-0.015-1.743-0.015c-0.507,0.015-1.017,0.039-1.54,0.051
	c-1.767,0.041-1.941,1.181-3.081,1.142c-0.776-0.028-1.755-0.644-3.442-0.99c-1.179-0.243-2.317-0.308-2.559-0.831
	c-0.24-0.524,0.294-1.111,0.334-1.62c0.041-0.684-0.508-1.608-0.107-1.957c0.349-0.308,1.085-0.082,1.567-0.347
	c0.507-0.295,0.722-0.523,0.722-1.153c0.188,0.642-0.013,1.163-0.429,1.418c-0.255,0.161-0.724,0.242-1.113,0.202
	c-0.308-0.027-0.495,0.012-0.576,0.135c-0.12,0.146-0.081,0.416,0.067,0.764c0.148,0.347,0.321,0.575,0.294,1.003
	c-0.015,0.43-0.495,0.939-0.413,1.301c0.026,0.135,0.16,0.255,0.494,0.349c0.536,0.146,1.513,0.293,2.465,0.521
	c1.058,0.269,2.156,0.75,2.84,0.656c2.035-0.281,0.87-2.464,0.549-2.985c-1.729-2.707-2.867-4.474-3.776-3.777
	c-0.229,0.188-0.243-0.456-0.229-0.711c0.041-0.885,0.483-1.204,0.75-1.89c0.508-1.301,0.896-2.784,1.673-3.548
	c0.582-0.753,1.491-1.97,1.667-2.611c-0.148-1.394-0.189-2.867-0.214-4.15c-0.026-1.38,0.188-2.588,1.74-3.431
	C10.542,0.079,11.037,0,11.56,0c0.924-0.015,1.954,0.255,2.612,0.737c1.046,0.776,1.701,2.424,1.62,3.602
	c-0.053,0.923,0.108,1.875,0.403,2.865c0.347,1.166,0.898,1.982,1.783,2.92c1.058,1.125,1.888,3.335,2.129,4.74
	c0.214,1.315-0.082,2.131-0.362,2.172c-0.429,0.064-0.695,1.417-2.034,1.365c-0.858-0.041-0.938-0.551-1.181-0.993
	c-0.388-0.683-0.776-0.467-0.923,0.255c-0.082,0.363-0.029,0.899,0.092,1.298c0.242,0.846,0.161,1.635,0.013,2.613
	c-0.281,1.849,1.299,2.197,2.358,1.312c1.044-0.869,1.271-1.004,2.583-1.459c1.995-0.685,1.327-1.286,0.255-1.648
	c-0.965-0.322-1.005-1.942-0.658-2.25c0.081,1.74,0.992,1.995,1.367,2.235C23.265,20.786,21.002,21.63,20.025,22.125z
	 M17.775,15.656c0.36-1.207,0.199-1.688-0.04-2.827c-0.188-0.855-0.979-2.022-1.595-2.383c0.161,0.133,0.457,0.522,0.765,1.11
	c0.535,1.006,1.069,2.491,0.722,3.725c-0.133,0.479-0.454,0.547-0.669,0.56c-0.938,0.108-0.388-1.125-0.776-2.798
	c-0.442-1.875-0.896-2.01-1.003-2.156c-0.552-2.436-1.153-2.194-1.329-3.105c-0.148-0.817,0.71-1.485-0.454-1.714
	C13.032,6,12.525,5.639,12.323,5.612c-0.201-0.025-0.309-1.354,0.441-1.394c0.737-0.056,0.872,0.831,0.737,1.181
	c-0.214,0.346,0.013,0.48,0.376,0.359c0.294-0.093,0.107-0.87,0.174-0.978c-0.188-1.125-0.656-1.284-1.14-1.38
	c-1.849,0.148-1.017,2.186-1.204,1.998c-0.27-0.282-1.046-0.027-1.046-0.203c0.015-1.045-0.335-1.646-0.817-1.66
	C9.31,3.521,9.095,4.271,9.068,4.699C9.027,5.101,9.297,5.947,9.498,5.88c0.133-0.041,0.362-0.309,0.12-0.293
	c-0.12,0-0.308-0.296-0.335-0.645C9.271,4.594,9.405,4.245,9.859,4.259c0.521,0.013,0.521,1.058,0.467,1.097
	c-0.171,0.12-0.388,0.352-0.415,0.39c-0.173,0.281-0.507,0.36-0.642,0.483c-0.229,0.24-0.281,0.509-0.108,0.601
	c0.615,0.349,0.415,0.749,1.273,0.779c0.563,0.026,0.977-0.082,1.367-0.202c0.293-0.092,1.247-0.293,1.446-0.643
	c0.092-0.146,0.201-0.146,0.267-0.107c0.133,0.067,0.161,0.322-0.174,0.403c-0.467,0.135-0.938,0.39-1.365,0.551
	c-0.415,0.171-0.548,0.238-0.938,0.306c-0.882,0.16-1.538-0.322-0.949,0.255c0.199,0.188,0.387,0.308,0.896,0.296
	c1.125-0.041,2.37-1.396,2.49-0.792c0.026,0.133-0.349,0.294-0.642,0.442c-1.046,0.508-1.781,1.527-2.452,1.176
	C9.777,8.974,9.177,7.485,9.188,8.156c0.013,1.031-1.354,1.942-0.724,3.12c-0.415,0.105-1.339,2.077-1.472,3.094
	c-0.081,0.589,0.054,1.313-0.095,1.714c-0.201,0.591-1.11-0.563-0.814-1.967c0.051-0.24,0-0.296-0.069-0.173
	c-0.362,0.654-0.16,1.58,0.133,2.222c0.123,0.281,0.429,0.401,0.658,0.644c0.467,0.534,2.316,1.902,2.638,2.236
	c0.416,0.389,0.296,1.298-0.563,1.392c0.442,0.832,0.87,0.911,0.858,2.264c0.508-0.267,0.309-0.857,0.094-1.229
	c-0.149-0.271-0.335-0.39-0.296-0.457c0.026-0.041,0.296-0.27,0.442-0.092c0.454,0.508,1.313,0.602,2.222,0.481
	c0.924-0.108,1.916-0.431,2.37-1.166c0.215-0.349,0.362-0.469,0.456-0.401c0.107,0.052,0.149,0.293,0.135,0.694
	c-0.015,0.431-0.188,0.873-0.308,1.233c-0.123,0.416-0.161,0.697,0.24,0.712c0.107-0.753,0.322-1.488,0.375-2.238
	c0.067-0.856-0.548-2.436,0.123-3.229c0.173-0.214,0.387-0.24,0.683-0.24c0.038-1.072,1.688-0.99,2.235-0.548
	C18.511,15.979,17.989,15.752,17.775,15.656z M6.845,11.801c-0.094,0.173-0.334,0.305-0.148,0.334
	c0.067,0.015,0.255-0.149,0.335-0.334c0.067-0.229,0.135-0.35,0.028-0.39C6.938,11.372,6.965,11.612,6.845,11.801z M9.912,4.541
	C9.751,4.5,9.777,4.74,9.859,4.714c0.053,0,0.12,0.082,0.092,0.202c-0.026,0.16-0.013,0.27,0.108,0.27c0.013,0,0.04,0,0.04-0.041
	C10.155,4.808,9.993,4.567,9.912,4.541z M10.275,5.771c-0.135,0.015-0.108-0.296,0.319-0.268
	C10.327,5.531,10.422,5.771,10.275,5.771z M11.373,5.543c0.388-0.171,0.523,0.096,0.388,0.149
	C11.626,5.73,11.613,5.476,11.373,5.543z M12.993,4.459c-0.174,0.015-0.12,0.094-0.04,0.12c0.107,0.031,0.214,0.217,0.242,0.416
	c0,0.026,0.133-0.026,0.133-0.067C13.34,4.608,13.06,4.447,12.993,4.459z M13.771,1.567c-0.108-0.108-0.215-0.202-0.322-0.202
	c-0.268,0.026-0.135,0.308-0.173,0.442c-0.056,0.146-0.255,0.269-0.12,0.375c0.12,0.094,0.199-0.146,0.456-0.24
	c0.066-0.029,0.375,0.012,0.441-0.135C14.063,1.74,13.891,1.661,13.771,1.567z M15.256,7.485c-0.253-0.159-0.308-0.428-0.401-0.334
	c-0.281,0.308,0.349,0.949,0.615,1.005c0.161,0.028,0.283-0.188,0.243-0.375C15.657,7.526,15.47,7.62,15.256,7.485z"/>
</svg>
