<?xml version="1.0" encoding="utf-8"?>
<!-- Generator: Adobe Illustrator 16.0.0, SVG Export Plug-In . SVG Version: 6.00 Build 0)  -->
<!DOCTYPE svg PUBLIC "-//W3C//DTD SVG 1.1//EN" "http://www.w3.org/Graphics/SVG/1.1/DTD/svg11.dtd">
<svg version="1.1" id="Layer_1" xmlns="http://www.w3.org/2000/svg" xmlns:xlink="http://www.w3.org/1999/xlink" x="0px" y="0px"
	 width="24px" height="24px" viewBox="0 0 24 24" enable-background="new 0 0 24 24" xml:space="preserve">
<path d="M0.352,0.596C-0.25,1.198-0.099,1.891,0.954,3.454C1.496,4.267,2.127,5.53,2.369,6.252C2.61,7.004,3.09,8.027,3.421,8.539
	c0.602,0.843,0.602,1.023,0.21,2.558c-0.241,0.962-0.331,2.166-0.21,2.918c0.18,1.264,1.203,3.1,1.835,3.311
	c0.542,0.179,1.324-0.782,1.354-1.654c0-0.753,0.03-0.783,0.36-0.242c0.572,0.933,2.377,2.917,2.527,2.768
	c0.06-0.06-0.331-0.843-0.902-1.715c-0.542-0.902-1.174-2.076-1.414-2.617c-0.331-0.902-0.451-0.963-0.843-0.542
	c-0.241,0.24-0.542,0.932-0.631,1.563c-0.241,1.445-0.782,1.625-1.203,0.392c-0.421-1.232-0.421-3.34,0-4.783
	c0.3-0.992,0.271-1.264-0.241-2.016C3.932,8.025,3.42,6.942,3.149,6.071c-0.271-0.845-0.903-2.107-1.414-2.77
	c-1.173-1.654-1.173-2.257,0.06-2.018c0.511,0.092,1.294,0.452,1.775,0.784c0.451,0.33,1.233,0.601,1.714,0.601
	c1.445,0,3.972,1.414,5.807,3.25c1.415,1.413,2.136,2.557,3.671,5.656c1.805,3.67,1.956,3.881,3.069,4.241
	c1.324,0.452,4.091,2.136,4.091,2.498c0,0.121-0.693,0.301-1.534,0.36c-2.257,0.242-2.468,0.662-0.993,1.986
	c0.692,0.601,1.986,1.533,2.918,2.046L24,23.67l-0.781-0.994c-0.452-0.542-1.385-1.384-2.106-1.836
	c-0.722-0.45-1.294-0.931-1.294-1.052s0.511-0.331,1.144-0.421c1.684-0.303,2.165-0.452,2.165-0.752
	c0-0.452-3.038-2.738-4.482-3.371c-1.233-0.571-1.384-0.813-2.98-4.091c-1.415-3.009-1.984-3.853-3.79-5.657
	c-2.316-2.315-3.911-3.31-5.958-3.61c-0.692-0.12-1.654-0.48-2.076-0.782C2.848,0.351,0.833,0.08,0.351,0.593L0.352,0.596z"/>
</svg>
