<?xml version="1.0" encoding="utf-8"?>
<!-- Generator: Adobe Illustrator 16.0.0, SVG Export Plug-In . SVG Version: 6.00 Build 0)  -->
<!DOCTYPE svg PUBLIC "-//W3C//DTD SVG 1.1//EN" "http://www.w3.org/Graphics/SVG/1.1/DTD/svg11.dtd">
<svg version="1.1" id="Layer_1" xmlns="http://www.w3.org/2000/svg" xmlns:xlink="http://www.w3.org/1999/xlink" x="0px" y="0px"
	 width="24px" height="24px" viewBox="0 0 24 24" enable-background="new 0 0 24 24" xml:space="preserve">
<path d="M11.995,24c-0.32,0-0.64-0.083-0.923-0.246l-2.937-1.737c-0.438-0.245-0.223-0.333-0.079-0.383
	c0.585-0.202,0.704-0.249,1.328-0.604c0.066-0.037,0.151-0.022,0.219,0.018l2.256,1.339c0.083,0.046,0.197,0.046,0.273,0
	l8.795-5.076c0.082-0.046,0.134-0.142,0.134-0.237V6.922c0-0.1-0.052-0.192-0.136-0.243l-8.792-5.072
	c-0.082-0.047-0.189-0.047-0.271,0L3.073,6.681C2.988,6.729,2.934,6.826,2.934,6.922v10.151c0,0.097,0.054,0.188,0.139,0.235
	l2.409,1.391c1.308,0.653,2.109-0.116,2.109-0.89V7.787c0-0.142,0.114-0.253,0.255-0.253h1.115c0.14,0,0.255,0.111,0.255,0.253
	V17.81c0,1.744-0.95,2.746-2.604,2.746c-0.508,0-0.909,0-2.026-0.552L2.28,18.677c-0.57-0.329-0.923-0.944-0.923-1.604V6.922
	c0-0.66,0.353-1.274,0.923-1.604l8.796-5.082c0.557-0.314,1.295-0.314,1.849,0l8.794,5.082c0.571,0.329,0.924,0.944,0.924,1.604
	v10.15c0,0.66-0.353,1.272-0.924,1.604l-8.794,5.077C12.642,23.917,12.323,24,11.998,24H11.995z M14.713,17.007
	c-3.851,0-4.656-1.768-4.656-3.249c0-0.142,0.112-0.253,0.252-0.253h1.138c0.126,0,0.233,0.091,0.252,0.215
	c0.172,1.157,0.682,1.742,3.013,1.742c1.851,0,2.641-0.42,2.641-1.401c0-0.567-0.222-0.987-3.103-1.27
	c-2.407-0.238-3.896-0.77-3.896-2.694c0-1.775,1.497-2.834,4.005-2.834c2.818,0,4.21,0.978,4.388,3.077
	c0.006,0.071-0.02,0.141-0.068,0.195c-0.048,0.051-0.115,0.082-0.186,0.082H17.35c-0.118,0-0.222-0.084-0.247-0.199
	c-0.274-1.219-0.94-1.606-2.748-1.606c-2.023,0-2.258,0.703-2.258,1.232c0,0.639,0.278,0.827,3.01,1.188
	c2.703,0.356,3.987,0.862,3.987,2.762c0,1.917-1.597,3.014-4.383,3.014H14.713z"/>
</svg>
