<?xml version="1.0" encoding="utf-8"?>
<!-- Generator: Adobe Illustrator 16.0.0, SVG Export Plug-In . SVG Version: 6.00 Build 0)  -->
<!DOCTYPE svg PUBLIC "-//W3C//DTD SVG 1.1//EN" "http://www.w3.org/Graphics/SVG/1.1/DTD/svg11.dtd">
<svg version="1.1" id="Layer_1" xmlns="http://www.w3.org/2000/svg" xmlns:xlink="http://www.w3.org/1999/xlink" x="0px" y="0px"
	 width="24px" height="24px" viewBox="0 0 24 24" enable-background="new 0 0 24 24" xml:space="preserve">
<path d="M6.028,8.587H1.819L0,17.801h2.161l0.456-2.388h2.047c1.933,0.114,4.094-1.479,4.094-4.208
	C8.758,9.612,7.849,8.701,6.028,8.587L6.028,8.587z M4.436,13.708H3.071l0.569-3.413h1.478c0.796,0,1.366,0.342,1.366,1.023
	C6.369,13.252,5.46,13.593,4.436,13.708z M13.648,8.587h-2.047l0.455-2.388H9.895l-1.819,9.213h2.161l1.023-5.118h1.707
	c0.796,0,0.796,0.342,0.682,0.911l-0.796,4.208h2.275l0.795-4.664C16.15,9.613,15.467,8.703,13.648,8.587L13.648,8.587z
	 M21.269,8.587h-4.208l-1.819,9.213h2.16l0.455-2.388h2.048C21.839,15.526,24,13.933,24,11.205C24,9.612,23.089,8.701,21.269,8.587
	L21.269,8.587z M19.676,13.708h-1.364l0.568-3.413h1.479c0.797,0,1.366,0.342,1.366,1.023C21.611,13.252,20.7,13.593,19.676,13.708z
	"/>
</svg>
